<?xml version="1.0" encoding="utf-8"?>
<!-- Designed by Vexels.com - 2016 All Rights Reserved - https://vexels.com/terms-and-conditions/  -->

<svg version="1.1" id="Layer_1" xmlns="http://www.w3.org/2000/svg" xmlns:xlink="http://www.w3.org/1999/xlink" x="0px" y="0px"
	 width="1200px" height="1200px" viewBox="0 0 1200 1200" enable-background="new 0 0 1200 1200" xml:space="preserve">
<g>
	<g>
		<path fill-rule="evenodd" clip-rule="evenodd" fill="#C7A12B" d="M1032.245,617.681l-58.747-3.828
			c-18.414,10.124-30.069,25.175-74.212,51.85c-16.239,9.811-30.225,14.601-60,7.902c-14.601-3.279,43.474,28.303,66.391,23.156
			C917.163,694.183,999.687,642.195,1032.245,617.681z"/>
		<path fill-rule="evenodd" clip-rule="evenodd" fill="#EEC340" d="M1030.31,614.485l-58.75-3.828
			c-18.419,10.118-30.069,25.175-74.21,51.85c-16.244,9.811-30.223,14.595-60.002,7.897c-14.601-3.284,43.474,28.308,66.389,23.162
			C915.223,690.987,997.752,638.999,1030.31,614.485z"/>
	</g>
	<g>
		<path fill-rule="evenodd" clip-rule="evenodd" fill="#D7BB84" d="M1055.712,295.352c-3-15.713-27.555-42.357-37.984-22.136
			c-5.647,10.923,4.157,24.446,16.664,28.186C1043.538,304.142,1054.845,307.153,1055.712,295.352L1055.712,295.352z
			 M1051.909,294.924c-0.575,7.821-8.074,5.826-14.135,4.014c-8.285-2.479-14.788-11.447-11.046-18.69
			C1033.647,266.851,1049.917,284.512,1051.909,294.924z"/>
		<path fill-rule="evenodd" clip-rule="evenodd" fill="#D7BB84" d="M1057.485,307.028c18.898,4.993,61.214-8.001,44.443-30.176
			c-9.066-11.986-29.136-8.314-39.862,3.487C1054.222,288.978,1044.942,299.85,1057.485,307.028L1057.485,307.028z
			 M1059.962,303.058c-8.313-4.751-2.162-11.96,3.037-17.685c7.108-7.824,20.417-10.259,26.428-2.315
			C1100.538,297.755,1072.495,306.371,1059.962,303.058z"/>
		<path fill-rule="evenodd" clip-rule="evenodd" fill="#BDA36B" d="M1057.551,307.569c27.373-0.297-5.951-31.322-8.045-14.963
			c-0.005,0.086-7.498-3.363-4.67,1.086c-0.203,0.245-8.014,0.847-5.8,7.287C1040.205,304.381,1055.858,307.582,1057.551,307.569z"
			/>
		<polygon fill-rule="evenodd" clip-rule="evenodd" fill="#E83B4F" points="1007.479,299.037 1095.988,312.591 1085.408,372.52 
			1003.471,361.56 		"/>
		<polygon fill-rule="evenodd" clip-rule="evenodd" fill="#C92E38" points="1003.203,293.062 1104.124,311.27 1100.105,321.904 
			1003.231,307.397 		"/>
		<polygon fill-rule="evenodd" clip-rule="evenodd" fill="#E0EEDE" points="1041.296,299.258 1067.398,303.715 1056.777,369.173 
			1034.334,366.16 		"/>
		<polygon fill-rule="evenodd" clip-rule="evenodd" fill="#F0D09A" points="1045.047,300.014 1063.52,302.939 1053.803,368.528 
			1037.744,366.689 		"/>
		<g>
			<polygon fill-rule="evenodd" clip-rule="evenodd" fill="#D7BB84" points="1036.342,298.06 1071.125,304.163 1068.55,317.232 
				1034.839,312.176 			"/>
			<polygon fill-rule="evenodd" clip-rule="evenodd" fill="#D7BB84" points="1041.33,299.112 1065.955,303.089 1063.465,316.464 
				1039.798,312.924 			"/>
		</g>
	</g>
	<g>
		<path fill-rule="evenodd" clip-rule="evenodd" fill="#9B9589" d="M1126.593,377.729c11.009-4.391,26.923-25.998,10.754-30.741
			c-8.741-2.571-17.195,6.467-18.156,16.088C1118.488,370.114,1117.897,378.761,1126.593,377.729L1126.593,377.729z
			 M1126.372,374.901c-5.769,0.685-5.378-5.048-4.907-9.709c0.63-6.381,6.24-12.366,12.03-10.668
			C1144.215,357.674,1133.667,371.989,1126.372,374.901z"/>
		<path fill-rule="evenodd" clip-rule="evenodd" fill="#9B9589" d="M1118.355,380.664c-0.969,14.447,14.439,43.383,28.204,28.066
			c7.438-8.275,1.943-22.36-8.15-28.496C1131.021,375.744,1121.809,370.525,1118.355,380.664L1118.355,380.664z M1121.59,381.907
			c2.289-6.717,8.394-3.261,13.288-0.287c6.694,4.068,10.335,13.405,5.404,18.89C1131.156,410.663,1120.944,391.483,1121.59,381.907
			z"/>
		<path fill-rule="evenodd" clip-rule="evenodd" fill="#9B9589" d="M1117.972,380.784c4.068,19.864,21.945-8.736,9.749-7.954
			c-0.065,0.005,1.388-5.93-1.448-3.245c-0.211-0.117-1.742-5.706-6.12-3.191C1117.847,367.728,1117.717,379.557,1117.972,380.784z"
			/>
		<polygon fill-rule="evenodd" clip-rule="evenodd" fill="#00766F" points="1115.85,343.256 1117.767,409.572 1053.071,406.306 
			1050.623,356.044 		"/>
		<polygon fill-rule="evenodd" clip-rule="evenodd" fill="#00A79F" points="1120.863,339.219 1121.845,415.171 1113.539,413.755 
			1110.445,341.258 		"/>
		<g>
			<polygon fill-rule="evenodd" clip-rule="evenodd" fill="#E0EEDE" points="1121.725,367.795 1121.814,387.428 1051.714,388.212 
				1051.068,373.502 			"/>
			<polygon fill-rule="evenodd" clip-rule="evenodd" fill="#9B9589" points="1121.616,370.634 1121.921,384.49 1051.563,385.873 
				1051.128,376.057 			"/>
		</g>
		<g>
			<polygon fill-rule="evenodd" clip-rule="evenodd" fill="#E0EEDE" points="1121.895,364.019 1122.356,390.176 1112.498,390.142 
				1111.427,364.91 			"/>
			<polygon fill-rule="evenodd" clip-rule="evenodd" fill="#828181" points="1121.835,367.801 1122.415,386.264 1112.334,386.34 
				1111.581,368.629 			"/>
		</g>
	</g>
	<g>
		<path fill-rule="evenodd" clip-rule="evenodd" fill="#2BB5AF" d="M826.183,600.934l-77.278-163.578
			c46.493-15.705,50.79,10.944,73.001-38.536c134.272-299.131,532.887,173.894,155.014,250.071
			C922.286,659.905,846.376,620.58,826.183,600.934z"/>
		<g>
			<defs>
				<path id="SVGID_1_" d="M826.183,600.934l-77.278-163.578c46.493-15.705,50.79,10.944,73.001-38.536
					c134.272-299.131,532.887,173.894,155.014,250.071C922.286,659.905,846.376,620.58,826.183,600.934z"/>
			</defs>
			<clipPath id="SVGID_2_">
				<use xlink:href="#SVGID_1_"  overflow="visible"/>
			</clipPath>
			<g clip-path="url(#SVGID_2_)">
				<path fill-rule="evenodd" clip-rule="evenodd" fill="#00938A" d="M844.688,332.789c13.614-27.699,46.071-35.835,74.658-18.969
					c30.639,18.075-1.156,94.764,38.586,81.666c42.115-13.882,15.788-61.107-1.273-47.985c22.25,14.663,8.256,24.151-4.298,22.703
					c-13.655-1.576-17.041-13.697-7.584-22.691c-3.456-3-6.3-5.894-6.73-8.09c-5.24-26.829,45.261-11.384,51.762-24.084
					c-4.087-2.899-5.891-8.038-4.079-12.712c2.211-5.701,8.962-8.54,15.082-6.363c6.118,2.19,9.288,8.582,7.074,14.278
					c-1.948,5.029-7.449,7.834-12.918,6.918c-2.576,5.636-8.756,8.725-14.786,9.168c-12.207,0.906-34.984,0.234-29.926,12.15
					c1.524,3.586,1.258,2.893,3.276,1.839c15.377-8.035,39.692-7.358,46.274,25.985c7.884,39.916-55.119,86.771-86.164,31.147
					c-8.545-15.317,6.209-63.177-17.544-41.57c8.848,8.056,12.705,17.481,6.006,27.371c-1.172,3.696-4.11,6.587-3.209,6.878
					c8.655,2.776,7.092,5.803,5.248,8.293c1.92,1.768,3.071,4.141,3.237,6.626c5.227,5.016,4.412,15.518,0.068,24.029
					c5.391,2.448,8.496,10.335,6.282,17.898c-3.016,10.277-15.317,20.005-31.27,15.664c-1.81-0.492-3.993-1.253-6.423-2.23
					c4.401,13.59,2.268,35.499-4.644,46.199c-1.953,28.355-6.733,56.46-14.601,70.876c-1.346,2.479-3.998,4.373-7.858,5.571
					c2.243,8.795-0.448,18.062-4.909,20.948c3.295,12.106,5.665,14.119,12.202,19.57c-5.821,7.704-152.811-30.811-150.792-40.062
					c0.542-2.485,1.664-4.72,2.024-6.501c-1.974-0.682-4.126-1.448-6.49-2.289c-2.065,1.802-4.808,4.125-12.423,1.768
					c-30.806-9.558-82.979-61.638-78.031-59.69c6.451,2.537,11.23,1.87,14.669,0.26c-0.167-0.713-0.193-1.38-0.052-2.013
					c1.128-5.199,6.667-12.241,10.038-16.294c-4.777-9.621-3.131-22.391,3.021-27.618c-1.388-3.628-0.56-5.847,3.636-4.881
					c3.813,0.883-3.401-10.694,4.675-10.592c0.294,0.002,0.69,0.164,1.162,0.445c0.38-0.052,1.003-0.042,1.839-0.151
					c1.857-0.245,11.296,2.771,15.007,4.053c5.693-4.623,11.715-8.915,17.625-12.962c4.068-2.779,8.811-5.592,13.937-8.337v-0.018
					c-0.532-11.202,29.704-21.945,55.14-27.079c1.703-4.011,3.464-7.86,5.264-11.486c-3.071-1.719-5.636-3.349-7.477-4.774
					c-12.392-9.501-11.23-24.058-4.469-32.002c6.18-7.264,17.33-8.652,21.117-2.396c0.182,0.292,0.341,0.573,0.482,0.854
					c1.964-2.901,5.61-5.436,11.991-6.855c0.852-0.188,1.623-0.31,2.326-0.365c2.282-3.631,6.951-5.339,11.34-4.107
					c4.628-6.811,11.085-4.722,15.942-5.847c5.766-6.741,14.713-13.457,22.826-13.723
					C834.239,331.096,839.148,331.645,844.688,332.789L844.688,332.789z M952.681,352.223c-0.998-0.357-2.704-1.112-4.298,0.375
					c-1.974,1.839-3.276,6.206,3.131,8.23C961.257,363.905,960.026,354.846,952.681,352.223L952.681,352.223z M903.474,435.387
					c-1.219,1.427-2.566,2.696-3.998,3.738c1.211,2.123,4.397-5.556,3.446,1.336c-0.461,3.308-3.227,2.316-5.295-0.159
					c-2.339,1.297-4.894,1.992-7.579,1.852c-0.852,1.302-1.782,2.565-2.774,3.797c3.076,1.136,6.412,1.526,10.059,0.891
					C910.139,444.599,907.269,438.034,903.474,435.387L903.474,435.387z M758.461,381.386c2.235-2.229,5.295-3.443,8.235-2.396
					c-0.016-0.261-1.982-3.776-2.469-8.09c-4.508,2.146-11.882,0.352-8.139-2.948c5.334-4.725,0.169,2.698,3.349,1.758
					c12.499-3.706-14.499-12.598-5.493,5.941C755.086,378,756.625,379.883,758.461,381.386z"/>
			</g>
		</g>
		<path fill-rule="evenodd" clip-rule="evenodd" fill="#00A79F" d="M1011.277,617.085c45.3-9.587,86.545-76.572,97.64-118.262
			c4.037-15.179,9.723-27.886,17.323-13.759C1151.438,531.907,1009.995,646.849,1011.277,617.085z"/>
		<path fill-rule="evenodd" clip-rule="evenodd" fill="#00A79F" d="M1005.107,598.687c30.433-13.895,48.024-68.032,48.647-99.463
			c0.224-11.436,2.042-21.375,9.876-12.504C1089.638,516.163,1009.373,620.08,1005.107,598.687z"/>
		<path fill-rule="evenodd" clip-rule="evenodd" fill="#00A79F" d="M1108.385,465.407c-2.258-44.039-64.81-95.288-106.224-113.597
			c-15.072-6.668-27.3-14.392-11.342-18.771C1043.744,318.524,1139.077,472.288,1108.385,465.407z"/>
		<path fill-rule="evenodd" clip-rule="evenodd" fill="#00A79F" d="M1048.823,572.063c25.808-15.224,36.046-65.357,33.4-93.585
			c-0.961-10.267-0.341-19.344,7.574-12.1C1116.035,490.392,1054.818,590.852,1048.823,572.063z"/>
		<path fill-rule="evenodd" clip-rule="evenodd" fill="#00A79F" d="M1104.728,459.666c-9.762-27.524-58.859-49.371-88.412-53.934
			c-10.757-1.662-19.917-4.479-10.699-9.965C1036.202,377.573,1125.361,458.815,1104.728,459.666z"/>
	</g>
	<path fill-rule="evenodd" clip-rule="evenodd" fill="#BDA36B" d="M337.927,811.023l-29.775-26.308
		c-12.671,18.633-28.285,32.543-46.428,45.948c-18.518,13.689-72.626,66.23-91.189,87.646c-4.904,5.66,13.845,13.416,21.529,5.425
		c40.042-41.654,70.978-60.695,113.66-84.646C328.811,826.129,327.384,823.905,337.927,811.023z"/>
	<path fill-rule="evenodd" clip-rule="evenodd" fill="#BDA36B" d="M531.964,822.553l-49.84-5.014
		c10.699,1.081,38.56,28.467,39.583,40.469c2.274,26.626,0.469,40.281,1.818,64.485c0.547,9.738,2.229,28.306,17.427,25.43
		c3.37-0.641,13.392-15.301-0.466-23.576c-1.61-0.964-0.042-63.821-3.433-70.037C536.483,853.263,532.625,826.502,531.964,822.553z"
		/>
	<path fill-rule="evenodd" clip-rule="evenodd" fill="#006840" d="M494.363,649.899l45.956-111.42l-1.38,2.854l-1.295,2.724
		l-1.19,2.61l-1.104,2.49l-1,2.383l-0.891,2.276l-0.792,2.172l-0.693,2.078l-0.57,1.99l-0.471,1.894l-0.349,1.818l-0.232,1.737
		l-0.12,1.669l0.005,1.591l0.135,1.534l0.25,1.472l0.385,1.425l0.516,1.367l0.651,1.32l0.781,1.289l0.922,1.247l1.068,1.216
		l1.206,1.193l1.36,1.172l1.5,1.151l1.654,1.146l1.808,1.128l1.964,1.138l2.115,1.135l2.284,1.138l2.443,1.156l2.605,1.167
		l2.406,0.862l2.573,0.57l2.745,0.297l2.896,0.029l3.045-0.211l3.164-0.451l3.287-0.669l3.38-0.878l3.477-1.07l3.55-1.253
		l3.617-1.414l3.667-1.573l3.706-1.711l3.727-1.834l3.748-1.948l3.735-2.05l3.727-2.128l3.696-2.203l3.662-2.266l3.612-2.302
		l3.537-2.336l3.467-2.354l3.37-2.352l3.266-2.347l3.152-2.318l3.024-2.289l2.876-2.229l2.716-2.172l2.553-2.089l2.375-2
		l2.175-1.894l1.961-1.774l4.73-4.477l4.238-4.297l3.787-4.123l3.357-3.961l2.943-3.803l2.555-3.652l2.185-3.5l1.839-3.368
		l1.516-3.229l1.213-3.105l0.94-2.987l0.677-2.878l0.445-2.771l0.226-2.659l0.039-2.576l-0.125-2.49l-0.281-2.404l-0.412-2.328
		l-0.5-2.269l-0.591-2.206l-0.651-2.149l-0.68-2.102l-0.703-2.06l-0.69-2.029l-0.667-1.993l-0.615-1.974l-0.542-1.964l-0.451-1.948
		l-0.331-1.948l-0.19-1.948l-0.031-1.964l0.151-1.979l0.099-0.726l0.122-0.685l0.143-0.651l0.167-0.617l0.201-0.589l0.229-0.562
		l0.271-0.542l0.299-0.526l0.352-0.516l0.391-0.505l0.445-0.495l0.497-0.498l0.55-0.505l0.612-0.505l0.68-0.518l0.742-0.529
		l0.818-0.552l0.885-0.57l0.961-0.596l1.052-0.628l1.133-0.659l1.211-0.696l1.302-0.737l1.404-0.786l1.503-0.831l1.602-0.888
		l1.703-0.94l1.813-1.003l1.935-1.065l2.031-1.136l2.159-1.211l2.279-1.281l2.735-1.563l2.667-1.534l2.584-1.516l2.524-1.485
		l2.435-1.443l2.365-1.401l2.289-1.357l2.209-1.302l2.138-1.242l2.057-1.177l1.979-1.117l1.904-1.032l1.828-0.956l1.743-0.872
		l1.664-0.781l1.591-0.682l1.508-0.581l1.432-0.474l1.344-0.362l1.271-0.245l1.188-0.122l1.102,0.005l1.021,0.146l0.943,0.281
		l0.852,0.427l0.776,0.578l0.69,0.734l0.607,0.896l0.521,1.063l0.44,1.234l0.352,1.409l0.271,1.596l0.201,1.807l0.135,1.818
		l0.065,1.82v1.828l-0.07,1.842l-0.141,1.844l-0.206,1.859l-0.266,1.873l-0.341,1.888l-0.401,1.904l-0.458,1.925l-0.526,1.938
		l-0.586,1.964l-0.651,1.979l-0.711,2.006l-0.773,2.031l-0.831,2.063l-0.886,2.084l-0.948,2.12l-1,2.146l-1.063,2.18l-1.122,2.209
		l-1.172,2.25l-1.221,2.289l-1.284,2.323l-1.331,2.365l-1.394,2.404l-1.438,2.443l-1.487,2.495l-1.542,2.534l-1.594,2.586
		l-1.638,2.633l-0.586,0.932c-18.653,28.871-15.387,39.737-22.466,80.401l-1.607,7.056l-1.953,6.889l-2.263,6.722l-2.571,6.555
		l-2.87,6.381l-3.136,6.212l-3.401,6.048c-34.656,55.843-96.567,83.182-157.262,77.132l-2.057-0.229l-1.995-0.247L529,691.276
		l-1.883-0.268l-1.813-0.276l-1.753-0.271l-1.695-0.271l-1.623-0.26l-1.563-0.25l-1.503-0.226l-1.432-0.203l-1.367-0.172
		l-1.297-0.146L494.363,649.899z"/>
	<polygon fill-rule="evenodd" clip-rule="evenodd" fill="#1B2F1E" points="566.828,602.804 786.371,664.656 789.158,665.255 
		792.127,665.567 795.257,665.622 798.544,665.421 801.972,664.987 805.506,664.325 809.163,663.447 812.911,662.379 
		816.747,661.129 820.643,659.705 824.592,658.129 828.587,656.41 832.606,654.561 836.638,652.597 840.669,650.539 
		844.683,648.391 848.67,646.166 852.606,643.887 856.494,641.559 860.305,639.205 864.032,636.824 867.657,634.451 
		871.183,632.081 874.569,629.732 877.822,627.422 880.911,625.169 883.847,622.971 886.592,620.856 889.136,618.837 
		891.48,616.923 893.595,615.126 898.669,610.597 903.232,606.245 907.3,602.067 910.897,598.051 914.051,594.199 916.786,590.495 
		919.132,586.935 921.093,583.523 922.716,580.239 924.011,577.082 925.003,574.043 925.716,571.115 926.178,568.302 
		926.414,565.586 926.438,562.961 926.284,560.427 925.969,557.973 925.513,555.593 924.951,553.285 924.305,551.035 
		923.589,548.842 922.838,546.698 922.065,544.594 921.304,542.526 920.573,540.486 919.903,538.473 919.301,536.47 
		918.799,534.481 918.434,532.496 918.218,530.509 918.169,528.506 918.32,526.49 918.419,525.75 918.549,525.055 918.7,524.393 
		918.88,523.766 919.091,523.167 919.33,522.594 919.622,522.044 919.942,521.508 920.317,520.987 920.739,520.476 921.216,519.968 
		921.755,519.463 922.346,518.958 923.002,518.447 923.729,517.926 924.531,517.385 925.412,516.835 926.365,516.257 
		927.407,515.658 928.527,515.025 929.751,514.356 931.061,513.652 932.465,512.913 933.973,512.121 935.59,511.285 937.32,510.391 
		939.15,509.441 941.109,508.428 943.185,507.357 945.378,506.209 947.706,504.992 950.167,503.695 953.11,502.128 955.978,500.575 
		958.768,499.052 961.476,497.554 964.102,496.101 966.646,494.684 969.11,493.317 971.495,492.004 973.795,490.751 
		976.014,489.561 978.148,488.443 980.2,487.402 982.163,486.435 984.047,485.558 985.846,484.771 987.552,484.089 989.188,483.505 
		990.719,483.034 992.183,482.667 993.545,482.427 994.827,482.313 996.02,482.331 776.474,420.479 775.281,420.461 
		774.005,420.581 772.637,420.823 771.179,421.182 769.642,421.656 768.009,422.24 766.301,422.925 764.503,423.712 762.62,424.589 
		760.657,425.55 758.602,426.592 756.469,427.72 754.255,428.907 751.95,430.157 749.572,431.47 747.105,432.837 744.558,434.252 
		741.933,435.708 739.227,437.2 736.438,438.729 733.567,440.281 730.622,441.849 728.163,443.141 725.837,444.362 723.639,445.506 
		721.566,446.582 719.612,447.595 717.779,448.545 716.047,449.436 714.432,450.275 712.929,451.061 711.518,451.806 
		710.205,452.515 708.984,453.176 707.861,453.812 706.829,454.405 705.869,454.983 704.996,455.538 704.189,456.075 
		703.465,456.601 702.803,457.111 702.212,457.619 701.675,458.125 701.199,458.625 700.779,459.135 700.396,459.656 
		700.076,460.193 699.787,460.747 699.547,461.32 699.337,461.919 699.162,462.542 699.011,463.208 698.886,463.899 
		698.774,464.641 698.626,466.66 698.675,468.657 698.896,470.647 699.261,472.634 699.756,474.629 700.357,476.622 701.029,478.64 
		701.761,480.679 702.527,482.742 703.293,484.847 704.048,486.995 704.767,489.188 705.418,491.439 705.978,493.746 
		706.423,496.127 706.739,498.575 706.895,501.117 706.869,503.74 706.64,506.456 706.179,509.269 705.467,512.196 704.47,515.231 
		703.173,518.387 701.555,521.672 699.586,525.089 697.242,528.647 694.513,532.348 691.351,536.205 687.754,540.216 
		683.689,544.398 679.128,548.75 674.049,553.28 671.937,555.072 669.601,556.986 667.049,559.01 664.303,561.13 661.378,563.318 
		658.282,565.575 655.026,567.886 651.64,570.23 648.124,572.6 644.494,574.983 640.761,577.353 636.954,579.718 633.068,582.041 
		629.125,584.32 625.142,586.544 621.126,588.688 617.097,590.751 613.065,592.709 609.049,594.558 605.057,596.277 601.1,597.856 
		597.201,599.283 593.375,600.533 589.62,601.601 585.971,602.479 582.426,603.135 579.001,603.575 575.725,603.776 
		572.589,603.721 569.622,603.403 	"/>
	<path fill-rule="evenodd" clip-rule="evenodd" fill="#1B2F1E" d="M500.348,651.602l45.962-111.42l-1.38,2.854l-1.292,2.729
		l-1.198,2.61l-1.097,2.49l-0.997,2.378l-0.896,2.282l-0.797,2.172l-0.688,2.073l-0.576,1.99l-0.466,1.899l-0.349,1.813
		l-0.237,1.737l-0.115,1.664v1.596l0.13,1.534l0.261,1.472l0.38,1.419l0.518,1.372l0.654,1.32l0.781,1.289l0.922,1.245l1.063,1.219
		l1.211,1.19l1.355,1.172l1.508,1.159l1.646,1.136l1.81,1.143l1.964,1.128l2.118,1.131l2.284,1.148l2.443,1.151l2.607,1.172
		l2.399,0.857l2.578,0.57l2.745,0.297l2.896,0.034l3.039-0.216l3.172-0.45l3.279-0.669l3.381-0.878l3.487-1.068l3.547-1.25
		l3.615-1.42l3.667-1.573l3.706-1.706l3.727-1.839l3.738-1.948l3.74-2.044l3.732-2.133l3.698-2.206l3.654-2.258l3.612-2.305
		l3.542-2.334l3.461-2.354l3.375-2.354l3.261-2.349l3.157-2.318l3.019-2.284l2.881-2.24l2.716-2.167l2.553-2.089l2.37-2l2.18-1.893
		l1.964-1.774l4.727-4.472l4.238-4.298l3.787-4.128l3.357-3.962l2.943-3.797l2.552-3.651l2.188-3.506l1.839-3.368l1.516-3.229
		l1.214-3.107l0.938-2.99l0.68-2.87l0.44-2.764l0.237-2.669l0.029-2.576l-0.13-2.485l-0.281-2.414l-0.393-2.323l-0.513-2.268
		l-0.584-2.206l-0.654-2.149l-0.68-2.099l-0.701-2.063l-0.693-2.024l-0.669-1.998l-0.612-1.974l-0.547-1.958l-0.445-1.953
		l-0.331-1.948l-0.19-1.948l-0.031-1.964l0.151-1.979l0.102-0.727l0.12-0.68l0.141-0.656l0.169-0.617l0.2-0.586l0.232-0.56
		l0.263-0.547l0.307-0.531l0.344-0.51l0.396-0.5l0.443-0.5l0.5-0.497l0.549-0.5l0.617-0.513l0.677-0.51l0.74-0.537l0.813-0.544
		l0.891-0.57l0.961-0.602l1.052-0.622l1.123-0.662l1.221-0.693l1.302-0.745l1.409-0.781l1.498-0.828l1.602-0.888l1.703-0.94
		l1.813-1.008l1.925-1.063l2.044-1.138l2.154-1.211l2.284-1.281l2.735-1.56l2.664-1.542l2.589-1.505l2.516-1.485l2.438-1.443
		l2.365-1.406l2.289-1.354l2.209-1.302l2.133-1.245l2.06-1.177l1.982-1.112l1.899-1.039l1.823-0.953l1.753-0.87l1.664-0.781
		l1.591-0.685l1.513-0.581l1.425-0.474l1.352-0.362l1.26-0.247l1.188-0.12l1.107,0.01l1.021,0.141l0.937,0.281l0.857,0.43
		l0.776,0.576l0.688,0.737l0.609,0.893l0.521,1.065l0.44,1.232l0.352,1.412l0.26,1.594l0.211,1.813l0.135,1.813l0.065,1.823v1.828
		l-0.075,1.834l-0.135,1.854l-0.206,1.854l-0.271,1.878l-0.336,1.888l-0.398,1.899l-0.461,1.925l-0.532,1.943l-0.581,1.959
		l-0.651,1.982l-0.716,2.008l-0.766,2.029l-0.833,2.06l-0.886,2.089l-0.948,2.112l-1,2.149l-1.063,2.18l-1.123,2.209l-1.172,2.25
		l-1.227,2.287l-1.276,2.326l-1.339,2.365l-1.388,2.404l-1.443,2.448l-1.487,2.495l-1.537,2.534l-1.594,2.586l-1.633,2.633
		l-0.597,0.927c-18.653,28.865-15.382,39.737-22.464,80.403l-1.604,7.053l-1.948,6.889l-2.269,6.722l-2.573,6.55l-2.868,6.386
		l-3.144,6.217l-3.396,6.04c-34.653,55.851-96.569,83.185-157.265,77.145l-2.052-0.24l-2-0.247l-1.933-0.266l-1.878-0.268
		l-1.813-0.276l-1.753-0.276l-1.693-0.266l-1.625-0.26l-1.563-0.245l-1.5-0.227l-1.435-0.206l-1.373-0.175l-1.302-0.146
		L500.348,651.602z"/>
	<polygon fill-rule="evenodd" clip-rule="evenodd" fill="#1B2F1E" points="754.786,621.692 709.765,597.249 751.466,588.068 
		882.125,621.853 840.93,642.731 	"/>
	<g>
		<path fill-rule="evenodd" clip-rule="evenodd" fill="#A82623" d="M823.699,556.199c-5.49,8.73-37.112,79.234-43.857,78.817
			c-38.039-2.334-20.398-39.771-17.187-72.436c3.756-38.177,18.94-19.984,54.543-9.733
			C818.37,553.189,821.865,555.418,823.699,556.199z"/>
		<path fill-rule="evenodd" clip-rule="evenodd" fill="#3F2C2F" d="M759.354,621.387l20.086,7.743
			c-1.284,3.972-20.698,63.56-25.326,74.478c-0.245,0.573-5.029-1.315-5.133-1.701c-0.25-0.888-1.008-2-1.359-3.878
			c-0.039-0.18-0.393-1.763-2.503-1.287c-3.321,0.745-9.678,3.209-16.63,0.966c-21.57-6.967-34.804-13.009-25.099-11.936
			c6.728,0.745,28.946,3.94,32.231-4.014C738.836,673.988,756.69,629.628,759.354,621.387z"/>
		<path fill-rule="evenodd" clip-rule="evenodd" fill="#D2C2B0" d="M794.275,626.917c0.19,2.365,11.452,17.763-16.538,8.725
			c-28.402-9.171-35.885-14.689-35.174-18.594c0.505-2.794,6.712-4.266,5.451-7.918c-1.443-4.172-0.393-6.743,1.992-7.85
			c3.396-1.589,39.76,9.723,42.557,11.27C802.902,618.272,807.79,628.854,794.275,626.917z"/>
	</g>
	<path fill-rule="evenodd" clip-rule="evenodd" fill="#1B2F1E" d="M991.521,480.039c-31.506-14.611-151.839-44.162-217.597-60.484
		c-4.451-1.107-60.362,18.317-78.695,42.815c-5.1,6.813,7.853,12.848,7.537,30.262c-0.305,16.533-6.345,11.418,10.254,18.362
		c14.968,6.256,184.607,48.402,213.904,55.114c41.425,9.499,8.616-5.714,2.69-36.867
		C922.953,494.205,987.693,499.653,991.521,480.039z"/>
	<g>
		<defs>
			<path id="SVGID_3_" d="M991.521,480.039c-31.506-14.611-151.839-44.162-217.597-60.484c-4.451-1.107-60.362,18.317-78.695,42.815
				c-5.1,6.813,7.853,12.848,7.537,30.262c-0.305,16.533-6.345,11.418,10.254,18.362c14.968,6.256,184.607,48.402,213.904,55.114
				c41.425,9.499,8.616-5.714,2.69-36.867C922.953,494.205,987.693,499.653,991.521,480.039z"/>
		</defs>
		<clipPath id="SVGID_4_">
			<use xlink:href="#SVGID_3_"  overflow="visible"/>
		</clipPath>
		<g clip-path="url(#SVGID_4_)">
			<path fill-rule="evenodd" clip-rule="evenodd" fill="#1B2F1E" d="M712.89,424.634l-33.877,33.822
				c39.752,3.94,78.687,20.531,117.577,30.389c32.783,8.314,64.039,16.197,95.783,24.779c6.23,1.688,38.778,13.142,39.01,13.163
				l69.584-41.37l-3.086-19.174l-248.846-59.111L712.89,424.634z"/>
		</g>
	</g>
	<g>
		<path fill-rule="evenodd" clip-rule="evenodd" fill="#A82623" d="M883.055,599.017c-7.543,7.027-56.174,67.071-62.591,64.94
			c-36.171-12.017-9.517-43.667,1.953-74.423c13.413-35.945,23.427-14.465,55.215,4.574
			C878.679,594.733,881.482,597.79,883.055,599.017z"/>
		<path fill-rule="evenodd" clip-rule="evenodd" fill="#3F2C2F" d="M804.149,645.536l17.437,12.632
			c-2.261,3.511-36.296,56.132-43.568,65.493c-0.388,0.492-4.519-2.555-4.529-2.964c-0.021-0.914-0.461-2.185-0.32-4.089
			c0.01-0.185,0.07-1.802-2.084-1.888c-3.412-0.13-10.178,0.628-16.325-3.331c-19.06-12.257-30.308-21.487-21.203-17.961
			c6.311,2.443,26.97,11.223,32.189,4.375C770.846,691.112,799.466,652.813,804.149,645.536z"/>
		<path fill-rule="evenodd" clip-rule="evenodd" fill="#D2C2B0" d="M836.492,659.832c-0.419,2.323,6.511,20.099-18.221,4.191
			c-25.107-16.148-30.915-23.396-29.233-26.988c1.201-2.571,7.584-2.399,7.303-6.256c-0.331-4.409,1.352-6.618,3.935-7.084
			c3.683-0.659,35.934,19.596,38.245,21.81C847.05,653.68,849.056,665.166,836.492,659.832z"/>
	</g>
	
		<polygon fill-rule="evenodd" clip-rule="evenodd" fill="none" stroke="#1A1414" stroke-width="0.5767" stroke-linejoin="bevel" stroke-miterlimit="2.6131" points="
		549.508,545.49 769.116,606.63 767.65,609.48 766.277,612.196 765.003,614.801 763.832,617.285 762.779,619.658 761.829,621.932 
		760.982,624.101 760.256,626.172 759.654,628.154 759.164,630.052 758.802,631.865 758.563,633.605 758.448,635.267 
		758.471,636.866 758.623,638.397 758.904,639.874 759.334,641.299 759.904,642.671 760.615,644.002 761.467,645.294 
		762.48,646.552 763.641,647.784 764.954,648.987 766.431,650.17 768.058,651.331 769.859,652.487 771.817,653.644 773.95,654.787 
		776.245,655.944 778.719,657.105 781.373,658.277 784.204,659.465 786.803,660.348 567.187,599.207 564.583,598.33 
		561.765,597.139 559.108,595.967 556.639,594.803 554.336,593.652 552.206,592.506 550.247,591.352 548.45,590.191 
		546.817,589.029 545.338,587.846 544.036,586.643 542.869,585.411 541.863,584.161 541.002,582.867 540.29,581.536 539.72,580.163 
		539.293,578.736 539.007,577.262 538.858,575.731 538.837,574.126 538.947,572.464 539.189,570.725 539.553,568.912 
		540.041,567.019 540.65,565.036 541.371,562.961 542.213,560.794 543.166,558.52 544.226,556.145 545.398,553.66 546.661,551.055 
		548.034,548.342 	"/>
	<g>
		<path fill-rule="evenodd" clip-rule="evenodd" fill="#A82623" d="M748.715,466.938l23.091-27.113
			c-7.735-0.531-45.461-5.886-44.17-12.882c3.045-16.536,8.496-30.897,6.501-36.187c-4.157-11.038-16.75-3.716-17.992,2.295
			c-5.17,24.99-16.27,41.008-10.97,45.633c3.368,2.933,9.983,7.376,39.716,24.428C745.439,463.422,748.509,466.084,748.715,466.938z
			"/>
		<path fill-rule="evenodd" clip-rule="evenodd" fill="#B5B5B5" d="M841.912,329.567l64.938,9.819
			c28.29-0.362,14.997,18.414,17.119,18.549c16.039,1.049,1.604,11.108,8.116,11.759c17.632,1.747,13.629,45.722-7.053,43.669
			c-15.898-1.578-10.97-7.548-28.543-9.293c-25.464-2.529-45.401-6.266-70.506-4.167c-4.337,0.365-33.189,0.677-36.538-0.661
			c-9.363-3.722-4.485-19.445,3.79-18.622c-0.18-0.612-15.257-16.492,4.779-27.253c11.762-6.324,9.577,9.116,11.132-3.904
			c1.823-15.247,13.463-10.564,17.434-16.765C829.975,327.395,837.083,328.28,841.912,329.567z"/>
		<path fill-rule="evenodd" clip-rule="evenodd" fill="#A82623" d="M697.823,551.972l224.502,29.488
			c10.34,20.542,12.429,21.638,21.93,26.386c-3.592,9.397-155.759,8.22-156.244-1.758c-0.266-5.373,1.987-10.314-3.248-10.429
			c-4.613-0.099-2.099,8.332-14.921,7.629c-32.283-1.768-96.413-41.469-91.123-40.763
			C692.234,564.325,696.326,555.223,697.823,551.972z"/>
		<path fill-rule="evenodd" clip-rule="evenodd" fill="#5E3222" d="M699.49,533.683l227.005,34.538
			c4.688,8.741,4.357,19.409,0.409,23.211c-3.935,3.787-18.052,6.673-59.411,5.784c-12.898-0.271-50.957-2.774-88.204-9.285
			c-43.709-7.644-86.365-20.133-86.907-30.996C691.979,548.81,699.472,534.361,699.49,533.683z"/>
		<path fill-rule="evenodd" clip-rule="evenodd" fill="#A82623" d="M800.953,415.27l113.204,14.242
			c12.817,37.952,24.86,102.956,18.502,131.04c-2.12,9.337-18.877,15.955-49.243,15.268c-26.128-0.586-187.768-12.528-184.531-45.06
			c2.112-21.302,16.64-41.078,30.655-58.213C749.778,447.795,796.07,415.036,800.953,415.27z"/>
		<path fill-rule="evenodd" clip-rule="evenodd" fill="#D7BB84" d="M799.831,517.054c-6.48-5.86-16.484-5.355-22.344,1.123
			c-5.86,6.477-5.36,16.484,1.117,22.344c6.485,5.863,16.484,5.355,22.344-1.12C806.808,532.918,806.308,522.914,799.831,517.054
			L799.831,517.054z M790.95,534.832c1.013,0.922,1.094,2.485,0.172,3.5c-0.917,1.016-2.485,1.091-3.498,0.174
			c-1.01-0.917-1.091-2.485-0.169-3.495C788.366,533.996,789.934,533.915,790.95,534.832L790.95,534.832z M782.326,526.776
			c1.016,0.922,1.091,2.485,0.174,3.498c-0.917,1.016-2.479,1.096-3.5,0.174c-1.013-0.917-1.089-2.479-0.172-3.498
			C779.75,525.94,781.313,525.86,782.326,526.776L782.326,526.776z M789.739,518.523c1.013,0.922,1.091,2.485,0.174,3.495
			c-0.917,1.018-2.485,1.096-3.5,0.174c-1.011-0.917-1.086-2.479-0.172-3.495C787.155,517.687,788.725,517.606,789.739,518.523
			L789.739,518.523z M798.839,526.967c1.018,0.917,1.099,2.485,0.177,3.498c-0.917,1.016-2.479,1.096-3.498,0.174
			c-1.011-0.917-1.091-2.485-0.169-3.495C796.26,526.13,797.823,526.05,798.839,526.967z"/>
		<path fill-rule="evenodd" clip-rule="evenodd" fill="#D7BB84" d="M804.837,476.642c-5.933-5.36-15.077-4.899-20.438,1.026
			c-5.36,5.925-4.899,15.067,1.031,20.432c5.92,5.355,15.067,4.899,20.427-1.026C811.218,491.147,810.757,482.003,804.837,476.642
			L804.837,476.642z M796.711,492.897c0.932,0.841,1.003,2.274,0.162,3.198c-0.844,0.927-2.277,0.997-3.196,0.161
			c-0.927-0.836-1.003-2.269-0.161-3.196C794.351,492.129,795.778,492.059,796.711,492.897L796.711,492.897z M788.827,485.532
			c0.932,0.839,1.003,2.271,0.159,3.196c-0.836,0.927-2.274,0.997-3.193,0.167c-0.927-0.841-1.003-2.269-0.162-3.201
			C786.472,484.766,787.9,484.69,788.827,485.532L788.827,485.532z M795.604,477.984c0.932,0.841,0.997,2.274,0.164,3.196
			c-0.841,0.932-2.274,1.003-3.204,0.167c-0.922-0.841-0.992-2.276-0.156-3.201C793.244,477.218,794.677,477.143,795.604,477.984
			L795.604,477.984z M803.928,485.709c0.927,0.836,0.997,2.268,0.161,3.196c-0.836,0.925-2.269,0.995-3.201,0.159
			c-0.927-0.841-0.992-2.274-0.156-3.201C801.571,484.938,803.003,484.867,803.928,485.709z"/>
		<g>
			<path fill-rule="evenodd" clip-rule="evenodd" fill="#A82623" d="M878.078,549.297l43.232-5.821
				c5.844,11.181-8.329,35.51-27.063,32.113C894.186,575.785,873.528,574.381,878.078,549.297z"/>
			<path fill-rule="evenodd" clip-rule="evenodd" fill="#A82623" d="M906.969,529.271c0.016-1.182-1.193-6.537-2.805-7.944
				c2.193,0.344,14.616,2.92,16.283,4.266c2.516,2.029,3.232,0.867-4.162,4.61c-3.227,1.623-18.682,5.86-22.651,6.457
				c-1.232,0.185-21.258,5.183-18.013-0.482C876.52,534.616,903.714,530.743,906.969,529.271z"/>
			<path fill-rule="evenodd" clip-rule="evenodd" fill="#E3C690" d="M885.495,535.163c12.103-0.526,34.817-9.965,37.692-8.285
				c6.962,4.071-5.399,10.9-1.662,12.061c15.192,4.727-32.087,25.295-44.289,10.428c-0.182-0.227,0.641-0.646-3.047-5.409
				C867.308,535.072,884.589,535.207,885.495,535.163z"/>
		</g>
		<path fill-rule="evenodd" clip-rule="evenodd" fill="#E3C690" d="M811.572,447.3l-12.147-34.814
			c-24.795,10.394-62.732,34.437-58.619,47.881c2.05,6.712,12.176,9.353,46.469-4.076C790.791,454.913,808.501,447.98,811.572,447.3
			z"/>
		<path fill-rule="evenodd" clip-rule="evenodd" fill="#F9C2A6" d="M886.503,327.65c27.178,25.326,54.481,62.471,20.341,98.846
			c-33.686,35.895-171.063,9.538-91.178-70.561C827.676,343.886,873.278,315.331,886.503,327.65z"/>
		<path fill-rule="evenodd" clip-rule="evenodd" fill="#E3C690" d="M911.376,427.204l-41.273,28.905
			c-0.091,0.719,23.672,23.474,38.539,33.502C940.338,510.988,931.868,434.695,911.376,427.204z"/>
		<path fill-rule="evenodd" clip-rule="evenodd" fill="#FBD3BF" d="M881.763,339.344c21.44,20.432,42.959,50.436,15.898,79.929
			c-26.696,29.092-135.262,8.024-71.957-56.921C835.221,352.585,871.335,329.398,881.763,339.344z"/>
		<path fill-rule="evenodd" clip-rule="evenodd" fill="#E6E3E3" d="M805.576,366.579c-34.832,61.927,61.19,90.358,100.091,52.238
			c14.606-14.314,16.479-30.874,8.715-56.476c67.18,78.744-91.465,113.012-69.615,170.49c7.139,18.784,45.329,16.622,37.018-0.995
			c-4.389-9.308-21.438,11.22-4.938,7.282c0.125-0.365,0.854-7.553,0.094,0.115c-1.667,16.796-27.558-20.297,5.647-13.944
			c24.644,4.709-16.7,69.584-78.025,10.728C772.236,504.992,783.829,376.862,805.576,366.579z"/>
		<path fill-rule="evenodd" clip-rule="evenodd" fill="#F5ACA6" d="M829.72,360.693c-9.121-1.183-17.471,5.17-18.643,14.197
			c-1.172,9.019,5.269,17.299,14.385,18.482c9.124,1.193,17.473-5.16,18.646-14.184C845.284,370.166,838.836,361.886,829.72,360.693
			z"/>
		<path fill-rule="evenodd" clip-rule="evenodd" fill="#F5ACA6" d="M897.598,374.648c-9.222-1.196-17.669,5.225-18.851,14.351
			c-1.19,9.132,5.321,17.502,14.549,18.703c9.225,1.203,17.671-5.225,18.851-14.351C913.34,384.225,906.818,375.851,897.598,374.648
			z"/>
		<path fill-rule="evenodd" clip-rule="evenodd" fill="#782D1A" d="M864.623,349.017c-0.612-3.495-4.547-5.324-7.535-4.995
			c-3.615,0.412-7.222,4.805-5.719,6.996c0.451,0.662,1.677-4.008,7.563-3.667C861.948,347.53,865.019,351.252,864.623,349.017z"/>
		<path fill-rule="evenodd" clip-rule="evenodd" fill="#782D1A" d="M888.095,359.623c1.633-3.146-0.38-6.996-2.956-8.548
			c-3.12-1.875-8.655-0.578-8.795,2.076c-0.039,0.794,3.774-2.164,8.235,1.688C886.862,356.81,887.042,361.631,888.095,359.623z"/>
		<path fill-rule="evenodd" clip-rule="evenodd" fill="#E6E3E3" d="M851.71,404.076c18.153-13.049,1.453-36.867-20.406-28.28
			c-12.955,5.089-38.859,19.904-51.272,4.722c-13.58-16.619,14.846-14.546,3.745-7.509c-2.823,1.795,0.211-7.141-3.706-0.922
			c-4.498,7.149,18.896,2.31,7.475-9.345c-5.3-5.417-15.718-1.094-19.776,7.949c-4.438,9.881-1.724,25.076,12.741,31.582
			C794.335,408.483,839.078,416.148,851.71,404.076z"/>
		<path fill-rule="evenodd" clip-rule="evenodd" fill="#E6E3E3" d="M859.153,406.425c-11.34-20.401,15.025-35.468,31.848-17.638
			c9.978,10.569,27.85,36.091,46.326,27.264c20.221-9.652-7.548-20.336-0.193-8.756c1.872,2.953,2.985-6.834,3.912,0.779
			c1.07,8.754-18.87-6.217-2.912-12.147c7.423-2.758,15.338,5.962,15.147,16.304c-0.201,11.306-9.527,24.448-26.086,24.159
			C911.376,436.109,865.704,423.446,859.153,406.425z"/>
		
			<path fill-rule="evenodd" clip-rule="evenodd" fill="#241D1E" stroke="#1A1414" stroke-width="0.5767" stroke-miterlimit="22.9256" d="
			M854.945,405.347c-3.717-0.224-7.001,3.938-7.332,9.303c-0.331,5.365,2.419,9.907,6.131,10.131
			c3.716,0.232,6.996-3.935,7.324-9.303C861.396,410.113,858.651,405.574,854.945,405.347z"/>
		<path fill-rule="evenodd" clip-rule="evenodd" fill="#F9C2A6" d="M811.093,345.321c-5.496-0.716-10.535,3.11-11.236,8.55
			c-0.711,5.443,3.17,10.434,8.675,11.15c5.496,0.716,10.53-3.117,11.231-8.556C820.474,351.023,816.586,346.032,811.093,345.321z"
			/>
		<path fill-rule="evenodd" clip-rule="evenodd" fill="#EE7076" d="M862.76,424.644c-1.935,10.587-22.19,12.28-19.536-4.107
			c0.021-0.091,3.787,5.509,8.645,6.918C855.979,428.642,861.107,425.805,862.76,424.644z"/>
		<path fill-rule="evenodd" clip-rule="evenodd" fill="#241D1E" d="M849.936,412.447l10.259-1.016
			c0.69,1.385,1.313,3.433,2.615,3.284c0.62-0.065,3.409-2.154,1.383,1.196c-0.331,0.557-1.083,1.224-2.711,2.214
			c-2.458,1.5-16.663-0.484-15.252-8.605C846.404,408.525,847.373,412.192,849.936,412.447z"/>
		<path fill-rule="evenodd" clip-rule="evenodd" fill="#241D1E" d="M862.117,413.262c2.099-1.596,6.082,1.477,2.907,4.008
			c-0.021,0.01,0.211-1.633-0.445-2.701C864.021,413.668,862.62,413.327,862.117,413.262z"/>
		<path fill-rule="evenodd" clip-rule="evenodd" fill="#241D1E" d="M845.292,411.986c-1.445-1.742,1.037-5.29,3.331-2.654
			c0.01,0.018-1.407-0.117-2.295,0.489C845.574,410.332,845.334,411.556,845.292,411.986z"/>
		<path fill-rule="evenodd" clip-rule="evenodd" fill="#A82623" d="M907.329,332.919l-51.652-14.655
			c3.5-35.218,34.111-54.353,67.873-44.016c34.372,10.525,23.852,97.247,58.794,73.514c37.028-25.157-0.841-66.623-13.864-48.759
			c25.344,9.212,14.335,22.55,1.823,24.339c-13.603,1.943-20.076-9.585-13.309-21.24c-4.123-2.175-7.639-4.389-8.631-6.524
			c-12.522-26.915,44.17-23.219,43.789-39.562c-0.341-14.556,6.626-8.715,5.511,1.612c-0.732,6.772-6.053,11.811-11.963,13.905
			c-11.551,4.092-33.741,9.337-25.706,20.211c2.414,3.271,1.974,2.636,3.646,1.031c12.739-12.22,36.406-17.856,51.553,14.546
			c18.143,38.784-30.394,103.101-75.041,54.272c-13.033-14.254-10.397-72.741-31.21-31.986
			C908.521,330.429,907.529,330.906,907.329,332.919L907.329,332.919z M965.88,304.863c-1.058-0.107-2.912-0.435-4.053,1.503
			c-1.422,2.394-1.534,7.199,5.188,7.605C977.236,314.586,973.66,305.639,965.88,304.863z"/>
		<path fill-rule="evenodd" clip-rule="evenodd" fill="#FDE9D3" d="M914.955,363.212c-12.856-25.711-53.879-32.687-77.796-21.422
			c-19.95,9.392-16.825,12.713-16.364,4.066c0.461-8.65,10.022-27.186,21.547-30.717c23.685-7.264,108.18,2.313,77.45,45.31
			C919.231,361.243,915.476,362.342,914.955,363.212z"/>
		<path fill-rule="evenodd" clip-rule="evenodd" fill="#E48764" d="M921.456,589.86l0.029-0.01l0.438-0.109l0.419-0.109l0.406-0.112
			l0.401-0.109l0.5,1.719l-0.417,0.12l-0.43,0.12l-0.435,0.11l-0.451,0.112l-0.036,0.008L921.456,589.86L921.456,589.86z
			 M698.052,558.413l0.07,0.049l0.471,0.336l0.492,0.341l0.404,0.281l-0.995,1.487l-0.427-0.292l-0.505-0.349l-0.49-0.357
			L697,559.866L698.052,558.413L698.052,558.413z M704.004,562.179l0.521,0.281l0.596,0.32l0.445,0.242l-0.826,1.586l-0.466-0.25
			l-0.612-0.326l-0.516-0.286L704.004,562.179L704.004,562.179z M710.346,565.357l0.591,0.271l0.69,0.305l0.346,0.151l-0.716,1.641
			l-0.352-0.154l-0.701-0.31l-0.591-0.266L710.346,565.357L710.346,565.357z M716.906,568.12l0.568,0.216l0.766,0.299l0.331,0.122
			l-0.625,1.677l-0.336-0.125l-0.781-0.297l-0.563-0.224L716.906,568.12L716.906,568.12z M723.61,570.566l0.219,0.076l0.828,0.278
			l0.641,0.216l-0.565,1.698l-0.643-0.216l-0.836-0.279l-0.224-0.081L723.61,570.566L723.61,570.566z M730.4,572.753l0.261,0.086
			l0.878,0.266l0.565,0.164l-0.505,1.719l-0.57-0.169l-0.891-0.271l-0.261-0.075L730.4,572.753L730.4,572.753z M737.255,574.743
			l0.651,0.18l0.935,0.25l0.135,0.042l-0.461,1.727l-0.141-0.039l-0.94-0.25l-0.651-0.182L737.255,574.743L737.255,574.743z
			 M744.167,576.561l0.396,0.096l0.974,0.24l0.362,0.089l-0.422,1.745l-0.37-0.096l-0.982-0.24l-0.391-0.102L744.167,576.561
			L744.167,576.561z M751.119,578.223l0.357,0.086l1.01,0.226l0.37,0.083l-0.386,1.75l-0.38-0.086l-1.011-0.232l-0.362-0.078
			L751.119,578.223L751.119,578.223z M758.102,579.767l0.521,0.104l1.031,0.216l0.19,0.039l-0.359,1.753l-0.19-0.034l-1.042-0.221
			l-0.521-0.109L758.102,579.767L758.102,579.767z M765.105,581.184l0.852,0.167l0.906,0.174l-0.336,1.758l-0.901-0.174
			l-0.862-0.167L765.105,581.184L765.105,581.184z M772.137,582.507l0.25,0.039l1.081,0.195l0.427,0.075l-0.307,1.763l-0.44-0.076
			l-1.081-0.19l-0.25-0.049L772.137,582.507L772.137,582.507z M779.18,583.729l0.836,0.135l0.938,0.156l-0.292,1.768l-0.943-0.156
			l-0.82-0.135L779.18,583.729L779.18,583.729z M786.246,584.862l0.396,0.06l1.112,0.169l0.261,0.042l-0.266,1.768l-0.263-0.036
			l-1.117-0.169l-0.388-0.06L786.246,584.862L786.246,584.862z M793.335,585.919L793.335,585.919l1.123,0.154l0.641,0.091
			l-0.247,1.774l-0.651-0.091l-1.12-0.156l-0.005-0.005L793.335,585.919L793.335,585.919z M800.417,586.886l0.776,0.104l0.997,0.13
			l-0.229,1.779l-0.998-0.135l-0.776-0.102L800.417,586.886L800.417,586.886z M807.514,587.787l0.448,0.055l1.12,0.135l0.211,0.026
			l-0.211,1.776l-0.208-0.023l-1.133-0.135l-0.435-0.055L807.514,587.787L807.514,587.787z M814.624,588.612l0.104,0.01l1.128,0.125
			l0.55,0.06l-0.195,1.784l-0.555-0.06l-1.122-0.125l-0.107-0.016L814.624,588.612L814.624,588.612z M821.745,589.37l0.852,0.083
			l0.922,0.096l-0.175,1.779l-0.922-0.091l-0.862-0.086L821.745,589.37L821.745,589.37z M828.868,590.05l0.44,0.047l1.112,0.094
			l0.232,0.021l-0.162,1.782l-0.229-0.013l-1.112-0.102l-0.445-0.044L828.868,590.05L828.868,590.05z M835.992,590.667l1.073,0.089
			l0.714,0.057l-0.138,1.782l-0.716-0.055l-1.068-0.086L835.992,590.667L835.992,590.667z M843.133,591.206l0.492,0.036l1.081,0.076
			l0.211,0.015l-0.12,1.787l-0.211-0.016l-1.086-0.073l-0.498-0.031L843.133,591.206L843.133,591.206z M850.272,591.678l0.886,0.055
			l0.904,0.057l-0.102,1.782l-0.906-0.049l-0.885-0.055L850.272,591.678L850.272,591.678z M857.419,592.074h0.06l1.042,0.055
			l0.683,0.031l-0.081,1.787l-0.68-0.029l-1.047-0.05l-0.065-0.005L857.419,592.074L857.419,592.074z M864.573,592.384l0.115,0.005
			l1.011,0.042l0.656,0.018l-0.06,1.789l-0.659-0.021l-1.013-0.034l-0.12-0.01L864.573,592.384L864.573,592.384z M871.715,592.61
			l0.932,0.026l0.857,0.018l-0.037,1.789l-0.86-0.016l-0.932-0.026L871.715,592.61L871.715,592.61z M878.87,592.74l0.479,0.005
			l0.932,0.005h0.375l-0.013,1.792h-0.372l-0.94-0.01l-0.477-0.003L878.87,592.74L878.87,592.74z M886.021,592.761l0.63-0.01
			l0.883-0.005h0.271l0.018,1.787h-0.268l-0.888,0.01l-0.636,0.005L886.021,592.761L886.021,592.761z M893.165,592.644l0.37-0.008
			l0.836-0.021l0.581-0.021l0.055,1.795l-0.581,0.013l-0.841,0.026l-0.37,0.01L893.165,592.644L893.165,592.644z M900.307,592.381
			l0.43-0.021l0.758-0.047l0.586-0.034l0.109,1.795l-0.596,0.029l-0.766,0.044l-0.43,0.021L900.307,592.381L900.307,592.381z
			 M907.42,591.904l0.542-0.047l0.68-0.06l0.563-0.055l0.169,1.784l-0.565,0.055l-0.688,0.06l-0.542,0.049L907.42,591.904
			L907.42,591.904z M914.496,591.133l0.385-0.057l0.573-0.083l0.56-0.081l0.237-0.039l0.284,1.771l-0.25,0.036l-0.57,0.091
			l-0.581,0.078l-0.385,0.055L914.496,591.133z"/>
		<path fill-rule="evenodd" clip-rule="evenodd" fill="#E48764" d="M923.599,574.191l0.39-0.164l0.412-0.18l0.399-0.188l0.39-0.185
			l0.781,1.615l-0.419,0.198l-0.419,0.195l-0.443,0.198l-0.39,0.159L923.599,574.191L923.599,574.191z M701.048,542.586l0.232,0.169
			l0.482,0.32l0.474,0.32l0.266,0.182l-0.966,1.503l-0.286-0.188l-0.5-0.333l-0.482-0.331l-0.24-0.167L701.048,542.586
			L701.048,542.586z M707.069,546.276l0.586,0.32l0.596,0.318l0.38,0.193l-0.82,1.599l-0.385-0.211l-0.612-0.32l-0.597-0.315
			L707.069,546.276L707.069,546.276z M713.432,549.433l0.63,0.284l0.69,0.307l0.302,0.135l-0.711,1.638l-0.31-0.135l-0.703-0.312
			l-0.63-0.284L713.432,549.433L713.432,549.433z M719.982,552.212l0.612,0.242l0.771,0.294l0.281,0.109l-0.641,1.675l-0.292-0.112
			l-0.771-0.299l-0.612-0.24L719.982,552.212L719.982,552.212z M726.671,554.712l0.284,0.099l0.823,0.292l0.57,0.195l-0.581,1.693
			l-0.57-0.195l-0.841-0.297l-0.281-0.099L726.671,554.712L726.671,554.712z M733.432,556.986l0.357,0.11l0.88,0.281l0.466,0.146
			l-0.536,1.708l-0.466-0.146l-0.891-0.286l-0.357-0.109L733.432,556.986L733.432,556.986z M740.258,559.075l0.786,0.232
			l0.938,0.268h-0.005l-0.487,1.724l-0.008-0.005l-0.943-0.271l-0.781-0.224L740.258,559.075L740.258,559.075z M747.142,561.013
			l0.565,0.156l0.966,0.261l0.195,0.049l-0.456,1.735l-0.195-0.052l-0.977-0.266l-0.565-0.148L747.142,561.013L747.142,561.013z
			 M754.065,562.818l0.57,0.143l1.003,0.253l0.159,0.039l-0.43,1.737l-0.162-0.039l-1.011-0.255l-0.57-0.141L754.065,562.818
			L754.065,562.818z M761.016,564.5l0.771,0.18l0.964,0.227l-0.401,1.747l-0.971-0.226l-0.771-0.18L761.016,564.5L761.016,564.5z
			 M767.988,566.078l0.081,0.023l1.073,0.227l0.596,0.125l-0.378,1.753l-0.602-0.125l-1.07-0.234l-0.086-0.016L767.988,566.078
			L767.988,566.078z M774.982,567.555l0.591,0.12l1.084,0.216l0.078,0.021l-0.344,1.758l-0.086-0.021l-1.086-0.221l-0.589-0.12
			L774.982,567.555L774.982,567.555z M782.006,568.938l0.11,0.021l1.096,0.203l0.549,0.112l-0.328,1.758l-0.557-0.107l-1.102-0.208
			l-0.099-0.016L782.006,568.938L782.006,568.938z M789.043,570.235l0.805,0.141l0.958,0.169l-0.307,1.763l-0.961-0.169
			l-0.808-0.141L789.043,570.235L789.043,570.235z M796.091,571.446l0.458,0.076l1.123,0.185l0.19,0.026l-0.289,1.768l-0.19-0.031
			l-1.122-0.185l-0.461-0.076L796.091,571.446L796.091,571.446z M803.157,572.574l0.135,0.021l1.128,0.169l0.505,0.081l-0.266,1.768
			l-0.51-0.075l-1.128-0.169l-0.135-0.026L803.157,572.574L803.157,572.574z M810.236,573.621l0.951,0.141l0.823,0.109l-0.253,1.779
			l-0.81-0.115l-0.961-0.135L810.236,573.621L810.236,573.621z M817.328,574.598l0.63,0.081l1.133,0.146h0.01l-0.221,1.776
			l-0.021-0.005l-1.13-0.143l-0.63-0.081L817.328,574.598L817.328,574.598z M824.425,575.483l0.292,0.037l1.123,0.135l0.365,0.039
			l-0.206,1.779l-0.365-0.044l-1.133-0.13l-0.286-0.036L824.425,575.483L824.425,575.483z M831.533,576.29l1.018,0.115l0.76,0.075
			l-0.185,1.784l-0.771-0.086l-1.008-0.104L831.533,576.29L831.533,576.29z M838.656,577.017l0.542,0.055l1.102,0.102l0.13,0.013
			l-0.162,1.784l-0.135-0.016l-1.107-0.104l-0.539-0.05L838.656,577.017L838.656,577.017z M845.779,577.653l1.081,0.091l0.701,0.055
			l-0.138,1.789l-0.711-0.057l-1.084-0.089L845.779,577.653L845.779,577.653z M852.91,578.205l0.401,0.023l1.063,0.075l0.32,0.016
			l-0.114,1.794l-0.321-0.026l-1.068-0.07l-0.406-0.031L852.91,578.205L852.91,578.205z M860.044,578.65l0.646,0.034l1.042,0.052
			l0.107,0.005l-0.091,1.792l-0.11-0.01l-1.042-0.049l-0.641-0.039L860.044,578.65L860.044,578.65z M867.199,578.986l0.674,0.023
			l1.008,0.037l0.099,0.005l-0.06,1.792l-0.099-0.005l-1.013-0.034l-0.68-0.026L867.199,578.986L867.199,578.986z M874.34,579.205
			l0.495,0.005l0.974,0.021l0.315,0.005l-0.026,1.792l-0.326-0.008l-0.971-0.016l-0.5-0.01L874.34,579.205L874.34,579.205z
			 M881.487,579.286h0.057h0.93l0.802-0.005l0.01,1.789l-0.807,0.01h-0.935h-0.057V579.286L881.487,579.286z M888.631,579.205
			l0.216-0.008l0.891-0.021l0.677-0.021l0.055,1.789l-0.693,0.018l-0.891,0.026l-0.211,0.005L888.631,579.205L888.631,579.205z
			 M895.76,578.932l0.81-0.042l0.823-0.055l0.149-0.01l0.12,1.789l-0.159,0.01l-0.831,0.05l-0.807,0.044L895.76,578.932
			L895.76,578.932z M902.872,578.41h0.049l0.761-0.076l0.753-0.075l0.211-0.021l0.19,1.784l-0.211,0.021l-0.761,0.073l-0.773,0.076
			l-0.049,0.005L902.872,578.41L902.872,578.41z M909.938,577.572l0.201-0.029l0.667-0.104l0.672-0.107l0.216-0.034l0.305,1.768
			l-0.232,0.034l-0.68,0.109l-0.682,0.107l-0.201,0.029L909.938,577.572L909.938,577.572z M916.908,576.267l0.109-0.031l0.57-0.135
			l0.56-0.141l0.472-0.125l0.461,1.73l-0.49,0.13l-0.573,0.138l-0.581,0.146l-0.12,0.031L916.908,576.267z"/>
		<path fill-rule="evenodd" clip-rule="evenodd" fill="#E3C690" d="M814.031,563.101c1.339,8.517-3.339,26.292-5.667,33.556
			c-1.284,3.982-7.975,3.485-29.835,1.313c-23.513-2.328-29.754-9.447-15.88-36.791c6.048-11.918,13.877-8.264,27.506-6.863
			C800.156,555.348,813.622,557.155,814.031,563.101L814.031,563.101z M775.664,566.323c-2.414,3.5-11.145,20.622-4.618,21.089
			c8.454,0.599,18.982,5.274,24.974,2.529c2.644-1.214,1.011-0.641,1.492-5.485c0.219-2.253-1.292-1.367-2.776-1.893
			c-7.178-2.529-15.778-0.617-12.442-7.017c2.836-5.436,11.051,2.693,15.848,0.279c1.925-0.966,2.203-0.857,2.946-8.308
			C786.538,564.039,776.836,559.926,775.664,566.323z"/>
		<path fill-rule="evenodd" clip-rule="evenodd" fill="#DAA88D" d="M811.158,350.801c-2.896-0.378-5.545,1.638-5.923,4.503
			c-0.37,2.865,1.675,5.49,4.568,5.866c2.896,0.375,5.54-1.638,5.923-4.503C816.096,353.804,814.046,351.176,811.158,350.801z"/>
		<path fill-rule="evenodd" clip-rule="evenodd" fill="#F9C2A6" d="M927.347,363.764c-5.831-0.755-11.16,3.303-11.913,9.061
			c-0.75,5.769,3.365,11.056,9.197,11.816c5.821,0.755,11.15-3.302,11.903-9.066C937.283,369.811,933.165,364.524,927.347,363.764z"
			/>
		<path fill-rule="evenodd" clip-rule="evenodd" fill="#B5B5B5" d="M860.354,332.421c-5.558,1.513-15.708,6.047-18.903,8.605
			c-1.628,1.302-2.724-6.516,8.066-9.595C856.374,329.473,861.167,332.202,860.354,332.421z"/>
		<path fill-rule="evenodd" clip-rule="evenodd" fill="#B5B5B5" d="M884.167,338.99c5.149,2.568,14.218,9.017,16.841,12.152
			c1.344,1.596,3.959-5.855-6.019-11.001C888.657,336.875,883.417,338.61,884.167,338.99z"/>
		<path fill-rule="evenodd" clip-rule="evenodd" fill="#666265" d="M872.798,361.378c0.326-0.24,0.49-0.013,0.815-0.255
			c0.005-4.261-9.952-7.183-14.541-4.615c-0.24,0.133-0.5,0.328-0.721,0.404c0.112,0.456,0.211,0.917,0.31,1.378
			C862.289,355.854,869.212,357.159,872.798,361.378z"/>
		<path fill-rule="evenodd" clip-rule="evenodd" fill="#6AC3D3" d="M853.533,350.356c-4.785-0.477-9.027,2.865-9.478,7.457
			c-0.461,4.599,3.047,8.707,7.819,9.181c4.779,0.471,9.022-2.865,9.478-7.462C861.807,354.94,858.307,350.825,853.533,350.356z"/>
		<g>
			<defs>
				<path id="SVGID_5_" d="M853.533,350.356c-4.785-0.477-9.027,2.865-9.478,7.457c-0.461,4.599,3.047,8.707,7.819,9.181
					c4.779,0.471,9.022-2.865,9.478-7.462C861.807,354.94,858.307,350.825,853.533,350.356z"/>
			</defs>
			<clipPath id="SVGID_6_">
				<use xlink:href="#SVGID_5_"  overflow="visible"/>
			</clipPath>
			<g clip-path="url(#SVGID_6_)">
				<polygon fill-rule="evenodd" clip-rule="evenodd" fill="#BCE2EC" points="844.873,351.241 847.386,349.33 854.731,370.106 
					851.179,370.666 				"/>
				<polygon fill-rule="evenodd" clip-rule="evenodd" fill="#BCE2EC" points="851.71,349.424 849.915,349.077 856.507,368.118 
					857.992,367.431 				"/>
			</g>
		</g>
		<path fill-rule="evenodd" clip-rule="evenodd" fill="#6AC3D3" d="M879.148,356.763c-4.889-0.487-9.225,2.928-9.686,7.621
			c-0.466,4.699,3.115,8.902,7.993,9.387c4.884,0.482,9.217-2.933,9.689-7.626C887.61,361.446,884.029,357.247,879.148,356.763z"/>
		<g>
			<defs>
				<path id="SVGID_7_" d="M879.148,356.763c-4.889-0.487-9.225,2.928-9.686,7.621c-0.466,4.699,3.115,8.902,7.993,9.387
					c4.884,0.482,9.217-2.933,9.689-7.626C887.61,361.446,884.029,357.247,879.148,356.763z"/>
			</defs>
			<clipPath id="SVGID_8_">
				<use xlink:href="#SVGID_7_"  overflow="visible"/>
			</clipPath>
			<g clip-path="url(#SVGID_8_)">
				<polygon fill-rule="evenodd" clip-rule="evenodd" fill="#BCE2EC" points="870.298,357.674 872.869,355.716 880.372,376.948 
					876.744,377.523 				"/>
				<polygon fill-rule="evenodd" clip-rule="evenodd" fill="#BCE2EC" points="877.286,355.815 875.447,355.461 882.19,374.919 
					883.701,374.218 				"/>
			</g>
		</g>
		<path fill-rule="evenodd" clip-rule="evenodd" fill="#DAA88D" d="M924.531,369.254c-2.891-0.375-5.54,1.641-5.912,4.508
			c-0.37,2.86,1.675,5.488,4.568,5.866c2.896,0.375,5.54-1.638,5.912-4.503C929.469,372.26,927.425,369.634,924.531,369.254z"/>
		<g>
			<path fill-rule="evenodd" clip-rule="evenodd" fill="#EE7076" d="M865.214,362.071c-7.996-1.479-15.669,3.74-17.133,11.657
				c-1.461,7.912,3.839,15.525,11.843,17.002c7.993,1.479,15.669-3.735,17.13-11.65C878.518,371.161,873.212,363.55,865.214,362.071
				z"/>
			<path fill-rule="evenodd" clip-rule="evenodd" fill="#F7B7B1" d="M869.527,367.978c-2.534-0.474-4.974,1.183-5.435,3.691
				c-0.461,2.508,1.221,4.93,3.758,5.394c2.534,0.466,4.967-1.188,5.428-3.696C873.744,370.859,872.066,368.441,869.527,367.978z"/>
			<path fill-rule="evenodd" clip-rule="evenodd" fill="#EE7076" d="M849.967,371.504c-4.519-0.839-8.847,2.107-9.668,6.569
				c-0.823,4.469,2.164,8.767,6.683,9.605c4.511,0.828,8.845-2.115,9.665-6.579C857.479,376.628,854.483,372.333,849.967,371.504z"
				/>
			<path fill-rule="evenodd" clip-rule="evenodd" fill="#EE7076" d="M874.119,376.536c-4.516-0.831-8.845,2.115-9.665,6.579
				c-0.833,4.472,2.162,8.764,6.67,9.6c4.519,0.833,8.847-2.115,9.678-6.582C881.622,381.672,878.638,377.375,874.119,376.536z"/>
			<path fill-rule="evenodd" clip-rule="evenodd" fill="#BC5047" d="M847.787,383.829c-2.23-0.414-4.133-0.25-4.248,0.362
				c-0.115,0.612,1.61,1.443,3.842,1.852c2.23,0.411,4.128,0.25,4.238-0.359C851.738,385.074,850.022,384.24,847.787,383.829z"/>
			<path fill-rule="evenodd" clip-rule="evenodd" fill="#BC5047" d="M872.006,388.494c-2.235-0.412-4.133-0.247-4.248,0.367
				c-0.11,0.609,1.602,1.44,3.836,1.852c2.235,0.409,4.139,0.25,4.248-0.362C875.952,389.736,874.241,388.908,872.006,388.494z"/>
		</g>
		<path fill-rule="evenodd" clip-rule="evenodd" fill="#A82623" d="M734.594,524.568l-39.976-17.466
			c-8.686,9.142-1.732,36.424,17.2,38.307C711.822,545.615,732.075,549.943,734.594,524.568z"/>
		<path fill-rule="evenodd" clip-rule="evenodd" fill="#A82623" d="M712.315,497.379c0.315-1.148,2.94-5.962,4.883-6.868
			c-2.209-0.266-14.856-1.206-16.835-0.37c-2.972,1.255-3.341-0.055,2.74,5.568c2.654,2.456,16.348,10.769,20.005,12.434
			c1.133,0.516,19.021,10.824,17.447,4.487C740.128,510.879,715.034,499.692,712.315,497.379z"/>
		<path fill-rule="evenodd" clip-rule="evenodd" fill="#E3C690" d="M731.343,508.946c-11.491-3.834-30.736-19.146-33.96-18.33
			c-7.824,2.005,2.193,11.968-1.724,12.059c-15.898,0.37,23.912,33.14,39.731,22.193c0.229-0.164-0.445-0.794,4.407-4.363
			C748.856,513.853,732.21,509.23,731.343,508.946z"/>
		<path fill-rule="evenodd" clip-rule="evenodd" fill="#3F2C2F" d="M745.058,359.091c2.164-0.453,16.591-3.016,8.621-8.079
			c-5.805-3.688-14.296,7.066-4.876-4.063c3.271-3.847,11.741-29.287-6.084-4.769c-0.076,0.102,1.26-5.881,2.693-10.986
			c1.018-3.636-3.589-9.597-6.066-2.894c-2.524,6.826-3.675,13.059-4.136,12.788c-1.052-0.622-0.055-6.652-3.016-11.137
			c-1.412-2.151-4.167-3.875-5.35,1.615c-1.482,6.951-0.661,20.82,3.672,25.508l0.065-0.154L745.058,359.091z"/>
		<path fill-rule="evenodd" clip-rule="evenodd" fill="#3F2C2F" d="M730.442,354.302c-8.996,18.817-17.703,34.668-26.709,53.486
			c8.116,7.759,25.467,10.975,32.408,8.123c1.61-5.548,6.644-56.955,9.91-57.643L730.442,354.302z"/>
		<path fill-rule="evenodd" clip-rule="evenodd" fill="#F0D09A" d="M997.642,235.107c6.48,0.641,11.23,6.358,10.59,12.757
			c-0.644,6.407-6.412,11.077-12.895,10.431c-6.485-0.643-11.23-6.358-10.598-12.765
			C985.38,239.133,991.149,234.461,997.642,235.107z"/>
		<path fill-rule="evenodd" clip-rule="evenodd" fill="#FFEACB" d="M998.585,239.868c4.352,0.427,7.532,4.261,7.105,8.558
			c-0.424,4.298-4.302,7.428-8.649,6.998c-4.352-0.435-7.532-4.269-7.113-8.566C990.355,242.566,994.225,239.431,998.585,239.868z"
			/>
	</g>
	
		<polygon fill-rule="evenodd" clip-rule="evenodd" fill="none" stroke="#1A1414" stroke-width="0.5767" stroke-linejoin="bevel" stroke-miterlimit="2.6131" points="
		489.93,681.64 698.566,758.337 769.116,606.63 549.508,545.49 	"/>
	<g>
		<path fill-rule="evenodd" clip-rule="evenodd" fill="#C7A12B" d="M834.809,735.954l-65.058-4.243
			c-20.396,11.21-33.298,27.884-82.187,57.416c-17.992,10.871-33.481,16.177-66.443,8.751
			c-16.169-3.631,48.142,31.348,73.517,25.646C707.361,820.67,798.755,763.098,834.809,735.954z"/>
		<path fill-rule="evenodd" clip-rule="evenodd" fill="#EEC340" d="M832.666,732.412l-65.063-4.243
			c-20.391,11.21-33.293,27.884-82.182,57.419c-17.992,10.869-33.481,16.174-66.448,8.751c-16.171-3.638,48.147,31.34,73.522,25.644
			C705.217,817.133,796.612,759.555,832.666,732.412z"/>
	</g>
	<g>
		<path fill-rule="evenodd" clip-rule="evenodd" fill="#C7A12B" d="M727.837,693.701l-65.058-4.243
			c-20.396,11.207-33.298,27.886-82.187,57.424c-17.987,10.869-33.47,16.169-66.443,8.751c-16.171-3.641,48.141,31.34,73.517,25.646
			C600.389,778.425,691.781,720.845,727.837,693.701z"/>
		<path fill-rule="evenodd" clip-rule="evenodd" fill="#EEC340" d="M725.694,690.161l-65.063-4.243
			c-20.391,11.21-33.296,27.884-82.182,57.416c-17.992,10.871-33.475,16.174-66.451,8.751
			c-16.169-3.636,48.147,31.342,73.525,25.646C598.243,774.878,689.635,717.303,725.694,690.161z"/>
	</g>
	<path fill-rule="evenodd" clip-rule="evenodd" fill="#88B9AB" d="M690.96,756.735l70.928-155.553
		c-16.281,31.817-16.151,41.029,14.965,54.082c26.608,11.168,88.511-30.41,109.852-48.998
		c56.978-49.626,12.129-68.428,14.887-90.173c1.037-8.165,14.827-7.634,41.75-21.964c31.889-16.976,50.23-31.392,52.91-12.923
		c2.876,19.794-7.258,40.036-26.292,69.003c-6.587,10.022-17.971,22.604-22.219,68.287c-7.6,81.526-86.321,134.517-143.247,151.782
		c-35.656,10.822-62.664,2.881-77.288,1.425L690.96,756.735z"/>
	<path fill-rule="evenodd" clip-rule="evenodd" fill="#006840" d="M698.594,758.048l70.939-155.551
		c-16.291,31.814-16.161,41.026,14.955,54.077c26.615,11.17,88.514-30.403,109.858-48.993c56.984-49.629,12.129-68.433,14.887-90.17
		c1.032-8.165,14.827-7.639,41.75-21.972c31.882-16.974,50.236-31.389,52.91-12.921c2.87,19.794-7.264,40.036-26.292,69.003
		c-6.587,10.027-17.968,22.599-22.224,68.287c-7.595,81.526-86.316,134.517-143.237,151.782
		c-35.666,10.819-62.664,2.881-77.296,1.427L698.594,758.048z"/>
	<path fill-rule="evenodd" clip-rule="evenodd" fill="#88B9AB" d="M793.249,571.451c-54.041,15.424-229.422-31.866-262.03-61.885
		l-5.404,2.219c27.93,72.449-37.099,85.177-42.357,156.085c-3.347,45.243,256.811,99.499,248.987,92.543
		c-46.003-40.924,33.882-128.873,60.229-160.624C802.12,588.401,798.294,576.777,793.249,571.451z"/>
	<path fill-rule="evenodd" clip-rule="evenodd" fill="#006840" d="M786.662,576.345c-54.046,15.424-227.448-35.468-260.056-65.487
		l-3.297,1.61c27.931,72.449-42.565,86.479-47.816,157.387c-3.355,45.245,289.114,111.947,280.103,106.607
		c-62.471-37.007,2.761-142.932,29.113-174.689C794.156,590.381,791.713,581.671,786.662,576.345z"/>
	<g>
		<defs>
			<path id="SVGID_9_" d="M786.662,576.345c-54.046,15.424-227.448-35.468-260.056-65.487l-3.297,1.61
				c27.931,72.449-42.565,86.479-47.816,157.387c-3.355,45.245,289.114,111.947,280.103,106.607
				c-62.471-37.007,2.761-142.932,29.113-174.689C794.156,590.381,791.713,581.671,786.662,576.345z"/>
		</defs>
		<clipPath id="SVGID_10_">
			<use xlink:href="#SVGID_9_"  overflow="visible"/>
		</clipPath>
	</g>
	<path fill-rule="evenodd" clip-rule="evenodd" fill="#03955F" d="M764.438,659.681c-16.27,33.71-35.017,104.732,2.039,105.435
		c75.364,1.438,171.836-67.053,182.327-165.159c13.437-54.468,20.607-50.545,27.595-67.214c0.078-0.201,26.933-58.656,9.139-43.209
		c-3.394,2.946-40.503,25.675-45.331,26.602c-24.021,4.613-11.41,13.21-8.444,29.793C944,614.274,818.271,683.749,783.607,670.331
		C780.651,669.187,765.225,658.053,764.438,659.681z"/>
	<path fill-rule="evenodd" clip-rule="evenodd" fill="#E8D1A8" d="M308.353,696.087l-22.555,14.564
		c-8.561,29.629-22.685,104.318,18.218,125.326c24.753,12.713,91.113,13.721,115.653,3.912
		c49.389-19.734,91.139-34.481,118.098-84.555c15.398-28.608,3.99-75.918-38.351-82.328c-37.927-5.738-26.266-5.792-63.008,5.443
		c-15.713,4.795-106.326,56.236-126.763,52.03C307.701,730.078,308.905,697.579,308.353,696.087z"/>
	<path fill-rule="evenodd" clip-rule="evenodd" fill="#E8D1A8" d="M372.59,835.135l-32.048-23.493
		c-10.931,19.706-25.217,34.984-42.065,49.975c-17.198,15.314-66.316,72.551-82.859,95.561c-4.368,6.087,15.007,12.103,21.93,3.451
		c36.103-45.12,65.177-66.883,105.508-94.619C364.875,851.015,363.248,848.926,372.59,835.135z"/>
	<path fill-rule="evenodd" clip-rule="evenodd" fill="#E8D1A8" d="M521.186,683.239l-38.218,11.97
		c-4.414,27.36-37.257,106.526-16.851,121.257c35.554,25.667,41.578,11.225,78.752,10.439c28.394-0.591,27.238,48.394,35.603,72.079
		c6.532,18.463,39.351,31.527,33.28,10.856c-3.907-13.324-4.774,2.821-20.346-28.485c-6.899-13.877-11.473-41.049-12.944-60.575
		c-0.852-11.254,1.336-20.596-0.19-21.985c-7.678-6.941-48.618-9.397-47.707-17.026C536.814,745.981,562.64,710.937,521.186,683.239
		z"/>
	<path fill-rule="evenodd" clip-rule="evenodd" fill="#E8D1A8" d="M510.256,681.996l-34.09-8.79
		c7.803,0.771,15.226-6.483,16.846-14.908c4.362-22.727,4.407-32.728,28.845-42.12c4.696-1.81,7.704-2.599,12.022-5.506
		c2.138,6.191,7.985,33.77,7.384,39.857c-1.383,13.916-5.761,11.741-6.222,14.747c-0.862,5.615,14.327-9.413,8.92,3.11
		c-3.49,8.084-24.396,4.389-32.507,11.577C510.907,680.444,510.511,681.34,510.256,681.996z"/>
	<g>
		<path fill-rule="evenodd" clip-rule="evenodd" fill="#A82623" d="M324.386,706.544c59.002,57.158,197.301,62.503,227.195-20.51
			c13.783-38.289,65.998-70.493,97.408-0.487c32.687,72.832,58.518-22.104,90.058-11.564c16.119,5.389,18.805,27.113,40.372,18.008
			c-3.115,19.034,7.665,47.295,2.034,48.605c-6.548,1.513-36.205,5.37-47.079-11.996c-9.835-15.718-24.409,20.143-36.281,24.784
			c-18.695,15.755-45.183,1.388-69.084-31.811c-45.386-63.047-43.578,59.807-174.405,65.232
			c-90.561,3.758-137.176-40.117-145.549-58.841C303.935,716.532,323.344,705.538,324.386,706.544z"/>
		<g>
			<defs>
				<path id="SVGID_11_" d="M324.386,706.544c59.002,57.158,197.301,62.503,227.195-20.51c13.783-38.289,65.998-70.493,97.408-0.487
					c32.687,72.832,58.518-22.104,90.058-11.564c16.119,5.389,18.805,27.113,40.372,18.008c-3.115,19.034,7.665,47.295,2.034,48.605
					c-6.548,1.513-36.205,5.37-47.079-11.996c-9.835-15.718-24.409,20.143-36.281,24.784c-18.695,15.755-45.183,1.388-69.084-31.811
					c-45.386-63.047-43.578,59.807-174.405,65.232c-90.561,3.758-137.176-40.117-145.549-58.841
					C303.935,716.532,323.344,705.538,324.386,706.544z"/>
			</defs>
			<clipPath id="SVGID_12_">
				<use xlink:href="#SVGID_11_"  overflow="visible"/>
			</clipPath>
			<g clip-path="url(#SVGID_12_)">
				<path fill-rule="evenodd" clip-rule="evenodd" fill="#D4C4AD" d="M760.146,687.01c1.411,6.352,4.688,60.328-3.076,59.838
					c-41.055-2.605-26.519-8.941-15.919-43.685c2.453-8.04,4.803-29.993,10.337-25.334
					C761.277,686.057,759.696,684.986,760.146,687.01z"/>
				<path fill-rule="evenodd" clip-rule="evenodd" fill="#D4C4AD" d="M680.472,696.613l29.613-21.024
					c1.644,21.92,29.835,71.694,1.698,77.624c-0.086,0.021-5.975,12.051-8.014-11.035
					C702.3,725.523,683.413,704.616,680.472,696.613z"/>
				<path fill-rule="evenodd" clip-rule="evenodd" fill="#D4C4AD" d="M658.021,688.818l9.316,10.84
					c1.198,15.979,2.805,66.459-28.399,65.097c-0.19-0.01-17.02-17.976-23.302-20.016c-0.125-0.044,14.004-8.441,18.487-10.874
					C647.093,726.84,659.154,703.885,658.021,688.818z"/>
				<path fill-rule="evenodd" clip-rule="evenodd" fill="#D4C4AD" d="M622.387,640.34l-0.25,9.316
					c5.409,72.15-29.944,79.273-22.81,66.11c11.124-20.508,2.954-62.909-21.187-71.053c-1.464-0.495,15.927-4.066,15.877-4.717
					L622.387,640.34z"/>
				<path fill-rule="evenodd" clip-rule="evenodd" fill="#D4C4AD" d="M579.642,731.799c-3.797-17.304-9.087-51.371-27.389-62.352
					c-14.822,18.56-15.721,16.862-12.793,23.443c3.886,8.751,15.867,25.144,23.891,55.265c3.396,12.746,5.891-7.79,15.859-15.658
					L579.642,731.799z"/>
				<path fill-rule="evenodd" clip-rule="evenodd" fill="#D4C4AD" d="M517.499,718.681c7.199,7.16,40.414,43.774,23.422,49.892
					c-22.25,8.014-11.52,9.712-32.835-25.547c-13.528-22.37-14.22-5.318,8.983-23.641L517.499,718.681z"/>
				<path fill-rule="evenodd" clip-rule="evenodd" fill="#D4C4AD" d="M479.2,734.451c11.311,14.911,12.983,32.712,14.296,50.3
					c1.084,14.356-2.318,10.663-26.667,11.611c-1.602-21.45,2.05-34.062-5.68-55.161C460.653,739.866,478.981,734.164,479.2,734.451
					z"/>
				<path fill-rule="evenodd" clip-rule="evenodd" fill="#D4C4AD" d="M441.083,736.474c-2.631,11.34,5.8,54.898-14.267,54.517
					c-16.458-0.315-27.048-1.984-26.777-5.344c0.482-6.097,19.815-20.192,15.768-48.639
					C415.415,734.279,441.643,734.039,441.083,736.474z"/>
				<path fill-rule="evenodd" clip-rule="evenodd" fill="#D4C4AD" d="M389.238,728.375c0.573,7.564-15.567,50.715-33.418,49.999
					c-10.54-0.425-34.778-12.637-34.494-15.437c0.005-0.049,14.757-9.668,26.227-20.302c10.41-9.657,17.393-20.51,22-18.937
					C375.504,725.728,386.024,727.343,389.238,728.375z"/>
			</g>
		</g>
		<path fill-rule="evenodd" clip-rule="evenodd" fill="#D4C4AD" d="M778.8,741.056l-0.281-48.811
			c2.42-0.01,20.437,1.641,20.466,2.334c0.107,2.214-15.682,0.51-17.823,0.216c-0.073-0.01,18.2,2.453,18.234,3.164
			c0.06,1.427-6.162,0.56-8.582,0.565c-7.056,0.036-14.158-0.396-0.25,1.024c0.037,0.005,12.028,0.846,8.371,1.743
			c-0.081,0.016-22.336-0.115-15.338,0.878c0.07,0.002,21.899,0.365,15.158,2.664c-6.912,2.354-27.311-2.094-6.998,0.401
			c2.839,0.344,9.342-1.123,7.868,4.151c-0.133,0.055-7.001-1.232-7.842-1.279c-0.771-0.039-9.108-0.529-9.249,0.302
			c-0.148-0.021,17.046,2.378,17.091,2.709c1.073,6.894-0.977,2.344-12.072,2.391c-12.572,0.06,12.478,1.596,12.585,4.016
			c0.24,5.334-0.211,1.865-10.981,1.909c-16.679,0.076,11.371,1.123,11.465,3.271c0.076,1.651-28.425-0.901-10.163,1.813
			c4.657,0.696,11.28-1.724,10.379,2.578c-0.065,0.318-28.181,0.261-11.801,1.485c3.797,0.284,12.002-1.568,12.051,1.716
			c0.021,1.81-28.402-0.404-11.051,2.089c3.768,0.547,11.337-1.341,11.332,1.683c-0.005,3.258-3.576,1.513-9.178,1.529
			c-0.852,0.01-7.517-0.114-7.959,0.357c2.521,1.302,20.724,0.787,17.151,5.089C801.3,741.142,781.214,741.043,778.8,741.056z"/>
	</g>
	<path fill-rule="evenodd" clip-rule="evenodd" fill="#B52420" d="M270.926,732.195c-15.473-0.305-0.63-52.194,47.175-26.766
		c12.012,6.391,14.697,31.507,3.094,38.502c-5.594,3.381-42.104,2.625-49.168-6.532
		C270.876,735.912,269.574,734.717,270.926,732.195z"/>
	<path fill-rule="evenodd" clip-rule="evenodd" fill="#B1542D" d="M316.88,720.491c-1.433,0.271-2.816-0.677-3.076-2.115
		c-0.266-1.438,0.68-2.81,2.112-3.081c73.663-13.754,105.089-43.286,132.819-69.35c1.037-0.972,2.065-1.938,3.097-2.899
		c19.924-18.679,38.875-47.331,55.445-72.389c20.471-30.967,37.442-56.627,50.251-52.855
		c50.238,14.806,86.248-48.574,117.124-102.901c13.666-24.045,26.347-46.35,39.01-59.789c13.744-14.575,27.43-19.078,42.107-5.243
		c1.06,1.003,1.112,2.675,0.109,3.737c-1.003,1.063-2.67,1.109-3.727,0.104c-11.817-11.129-23.12-7.194-34.642,5.024
		c-12.262,13.009-24.774,35.033-38.262,58.765c-31.832,56.017-68.97,121.364-123.198,105.38
		c-9.077-2.675-25.063,21.508-44.36,50.691c-16.723,25.29-35.843,54.212-56.249,73.327c-1.024,0.966-2.055,1.932-3.087,2.904
		C424.102,676.36,392.074,706.455,316.88,720.491z"/>
	<path fill-rule="evenodd" clip-rule="evenodd" fill="#A88B4C" d="M331.215,727.937c57.614,5.722,124.854-15.322,190.602-46.834
		c65.959-31.616,130.433-73.796,182.278-110.147c15.095-10.579,42.625-10.894,70.826-11.215c40.854-0.471,83.174-0.956,86.365-33.04
		c0.552-5.584,0.823-11.014,1.084-16.273c0.549-10.981,1.06-21.258,3.776-29.303c4.954-14.671,16.408-21.685,45.711-11.785
		l-1.682,5.013c-25.386-8.577-35.075-3.201-39.021,8.454c-2.485,7.368-2.977,17.291-3.506,27.897
		c-0.271,5.464-0.552,11.108-1.089,16.518c-3.651,36.807-48.391,37.317-91.579,37.809c-27.379,0.31-54.106,0.62-67.86,10.267
		c-51.996,36.455-116.692,78.773-183.031,110.563c-66.54,31.895-134.712,53.176-193.397,47.352L331.215,727.937z"/>
	<g>
		<path fill-rule="evenodd" clip-rule="evenodd" fill="#A82623" d="M933.223,449.764c6.295,14.682,32.978,73.03,31.301,88.508
			c-3.222,29.543-30.264,19.26-48.863,9.296c-7.439-3.985-24.12-18.854-18.073-27.358c12.858-18.073,6.761-10.368,30.329,8.655
			c22.651,18.284,13.072-30.616-0.721-52.975C913.199,460.344,920.523,441.708,933.223,449.764z"/>
		<path fill-rule="evenodd" clip-rule="evenodd" fill="#FDE9D3" d="M916.757,513.257c30.655-4.368,4,68.615-13.635,51.413
			c-2.164-2.112-2.805-5.165-3.967-4.732c-0.466,0.174,6.576-0.537-7.915,1.328C869.191,564.099,909.428,516.158,916.757,513.257z"
			/>
		<path fill-rule="evenodd" clip-rule="evenodd" fill="#3F2C2F" d="M892.663,540.336c6.842-10.152,16.299-21.438,24.855-26.576
			c-12.012-15.262-34.541-66.521-39.396-48.652c-1.206-0.101-7.069-6.282-6.006,2.089c-7.373-5.566-10.814,8.204,6.172,20.982
			C883.065,491.769,892.923,534.66,892.663,540.336z"/>
	</g>
	<path fill-rule="evenodd" clip-rule="evenodd" fill="#D4C4AD" d="M248.506,820.308l48.548,7.176
		c-0.292,2.964-4.209,24.803-4.899,24.732c-2.216-0.214,1.472-19.31,2.032-21.883c0.021-0.091-4.733,21.935-5.449,21.86
		c-1.422-0.141,0.227-7.639,0.521-10.6c0.862-8.665,2.185-17.304-0.982-0.466c-0.01,0.047-2.354,14.611-2.784,9.988
		c-0.01-0.089,2.93-27.358,1.06-18.929c-0.018,0.081-3.125,26.784-4.558,18.164c-1.472-8.832,5.527-33.155,0.482-8.637
		c-0.701,3.428-0.06,11.627-5.12,9.012c-0.034-0.174,2.105-8.399,2.255-9.425c0.141-0.933,1.683-11.079,0.875-11.387
		c0.037-0.174-4.516,20.542-4.852,20.552c-6.988,0.25-2.203-1.568-0.852-15.182c1.531-15.419-3.167,15.057-5.582,14.817
		c-5.334-0.532-1.823-0.552-0.51-13.76c2.029-20.464-2.55,13.77-4.698,13.554c-1.651-0.164,4.49-34.713-0.521-12.728
		c-1.276,5.595,0.292,14.08-3.865,12.317c-0.312-0.13,3.284-34.588,0.008-14.695c-0.761,4.608,0.042,14.955-3.219,14.51
		c-1.81-0.245,3.977-34.757-0.688-13.864c-1.016,4.532-0.099,14.101-3.104,13.629c-3.237-0.508-1.047-4.623-0.37-11.481
		c0.109-1.047,1.07-9.207,0.659-9.819c-1.612,2.886-3.396,25.276-7.222,20.247C245.579,847.89,248.215,823.28,248.506,820.308z"/>
	<path fill-rule="evenodd" clip-rule="evenodd" fill="#D4C4AD" d="M328.259,711.693c-4.857-6.972-32.424-20.028-50.241-9.811
		c-13.51,7.748-18.664,36.895-22.92,83.289c-4.42,48.243-35.76,39.966,38.599,45.266c7.274,0.516,6.873-57.544,13.119-85.128
		C310.647,728.408,321.547,711.039,328.259,711.693z"/>
	<g>
		<defs>
			<path id="SVGID_13_" d="M328.259,711.693c-4.857-6.972-32.424-20.028-50.241-9.811c-13.51,7.748-18.664,36.895-22.92,83.289
				c-4.42,48.243-35.76,39.966,38.599,45.266c7.274,0.516,6.873-57.544,13.119-85.128
				C310.647,728.408,321.547,711.039,328.259,711.693z"/>
		</defs>
		<use xlink:href="#SVGID_13_"  overflow="visible" fill-rule="evenodd" clip-rule="evenodd" fill="#A82623"/>
		<clipPath id="SVGID_14_">
			<use xlink:href="#SVGID_13_"  overflow="visible"/>
		</clipPath>
		<g clip-path="url(#SVGID_14_)">
			<path fill-rule="evenodd" clip-rule="evenodd" fill="#D4C4AD" d="M314.609,756.118c-6.381,0.813-64.159-11.379-63.388-18.135
				c2.084-18.078,4.589-23.665,10.975-23.268c4.303,0.271,49.644,17.596,60.164,18.289
				C332.22,733.649,316.637,755.854,314.609,756.118z"/>
			<path fill-rule="evenodd" clip-rule="evenodd" fill="#D4C4AD" d="M308.077,792.385c-6.175,1.766-65.151-1.518-65.43-8.321
				c-0.774-18.187,0.825-24.084,7.191-24.665c4.297-0.385,51.785,9.868,62.278,8.957
				C321.958,767.505,310.046,791.817,308.077,792.385z"/>
			<path fill-rule="evenodd" clip-rule="evenodd" fill="#D4C4AD" d="M304.18,835.833c-6.175,1.771-65.151-1.518-65.432-8.316
				c-0.776-18.187,0.828-24.089,7.193-24.67c4.297-0.386,51.783,9.874,62.271,8.962C318.062,810.953,306.149,835.271,304.18,835.833
				z"/>
		</g>
	</g>
	<g>
		<path fill-rule="evenodd" clip-rule="evenodd" fill="#503229" d="M250.134,517.356c6.405-9.423,12.186-14.903,18.588-24.326
			c-7.498-2.177-15.179-5.394-22.677-7.571c19.346-12.658,40.708-46.852,20.091-59.708c-18.117-10.225-28.85,24.73-43.177,43.992
			c-7.011,6.194-17.171-6.266-23.852-10.782c18.127-10.608,56.27-61.104,27.279-77.742c-9.478-6.24-20.753-0.39-27.519,12.142
			c-9.618,17.828-13.671,45.511-20.93,39.771c-17.711-13.679,7.855-43.568,3.308-66.795c-1.953-9.98-9.157-14.544-17.953-15.817
			c-29.915-7.139-63.633,68.102-11.116,126.979C168.148,494.335,204.337,519.38,250.134,517.356z"/>
		<path fill-rule="evenodd" clip-rule="evenodd" fill="#B5B5B5" d="M207.311,616.238l-12.241-1.974
			c-2.451-0.401-4.779,1.281-5.17,3.727l-1.378,8.535c-0.396,2.445,1.289,4.774,3.732,5.165l12.241,1.979
			c2.451,0.393,4.779-1.289,5.17-3.732l1.372-8.53C211.439,618.957,209.757,616.629,207.311,616.238z"/>
		<path fill-rule="evenodd" clip-rule="evenodd" fill="#A88B4C" d="M287.441,592.16l2.87-19.245
			c-12.642-39.226-121.229-75.366-102.75-39.346c20.237,39.44,48.391,61.89,95.405,60.768
			C282.998,594.337,287.436,592.16,287.441,592.16z"/>
		<path fill-rule="evenodd" clip-rule="evenodd" fill="#8F723F" d="M265.36,565.086c-10.884-23.162-56.872-30.129-49.975-16.69
			c7.595,14.817,21.609,28.22,35.645,32.533C264.701,585.128,274.192,583.875,265.36,565.086z"/>
		<path fill-rule="evenodd" clip-rule="evenodd" fill="#E8D1A8" d="M310.496,658.532l38.2-26.701
			c-17.351,39.862-17.903,56.015-19.489,79.502c-0.226,3.37-0.45,6.902-0.802,10.668c-0.226,2.485-2.815,5.1-6.957,6.136
			c-7.173,1.789-17.578,0.516-18.153-2.308c-0.737-3.657,0.68-8.074,1.232-13.15c0.912-8.605,2.224-19.284,3.956-32.473
			C309.061,675.839,309.686,662.249,310.496,658.532z"/>
		<path fill-rule="evenodd" clip-rule="evenodd" fill="#E8D1A8" d="M348.115,642.796l-106.313,15.226
			c5.396,22.164-0.13,15.072,5.722,25.331c2.904,5.094,14.861,17.486,40.591,6.094C335.713,668.38,358.322,668.19,348.115,642.796z"
			/>
		<path fill-rule="evenodd" clip-rule="evenodd" fill="#5E3222" d="M322.008,658.598l-68.662,6.928
			c-2.474,19.141,16.768,22.211,35.523,15.859c17.661-5.985,26.298-10.303,32.238-13.695
			C327.332,664.137,318.742,661.999,322.008,658.598z"/>
		<path fill-rule="evenodd" clip-rule="evenodd" fill="#E8D1A8" d="M243.613,570.399c9.04-21.838-1.318-66.594,18.145-86.029
			c32.309-32.283,110.691-19.7,115.405,44.847c1.385,18.995-0.422,46.714-7.631,72.434c-3.719,13.286,39.573,15.164,23.334,47.191
			c-25.016,49.293-320.306,34.346-290.221-76.223c6.931-25.49,28.04-18.672,61.315-20.62c30.709-1.789,49.272,8.683,77.645,19.013
			L243.613,570.399z"/>
		<path fill-rule="evenodd" clip-rule="evenodd" fill="#A82623" d="M130.864,500.359c36.366,7.996,59.747,42.195,52.228,76.377
			c-7.517,34.187-43.091,55.416-79.458,47.42c-36.364-7.998-59.747-42.195-52.228-76.382
			C58.925,513.587,94.498,492.361,130.864,500.359z"/>
		<path fill-rule="evenodd" clip-rule="evenodd" fill="#E8424D" d="M114.716,512.16c15.106,3.326,24.813,17.528,21.688,31.728
			c-3.115,14.195-17.898,23.011-32.999,19.695c-15.096-3.326-24.816-17.531-21.69-31.728
			C84.835,517.661,99.618,508.839,114.716,512.16z"/>
		<path fill-rule="evenodd" clip-rule="evenodd" fill="#5E3222" d="M327.201,523.039c8.202,1.284,23.469,6.167,28.446,9.324
			c2.539,1.612,2.875-9.769-13.072-12.468C332.447,518.182,326.006,522.854,327.201,523.039z"/>
		<path fill-rule="evenodd" clip-rule="evenodd" fill="#5E3222" d="M357.291,626.416c0.302,0.521,4.157,0.667,6.701,3.154
			c1.935,1.888,2.711,5.019,3.467,6.178c0.761,1.161,4.48-3.662-1.302-8.848C362.63,623.742,357.01,625.935,357.291,626.416z"/>
		<path fill-rule="evenodd" clip-rule="evenodd" fill="#5E3222" d="M254.176,673.962c19.906,2.961,105.568-20.557,109.287-45.532
			c0.089-0.581,0.13-1.148,0.13-1.682h3.149c0,0.727-0.049,1.443-0.154,2.154c-1.67,11.205-16.421,23.511-32.811,32.978
			c-9.025,5.209-33.679,18.414-44.237,16.841L254.176,673.962z"/>
		<path fill-rule="evenodd" clip-rule="evenodd" fill="#E8D1A8" d="M362.461,602.984l5.464-18.679
			c27.946-30.293,141.666-17.536,109.787,7.399c-34.918,27.313-69.899,35.879-112.105,15.132
			C365.586,606.82,362.461,602.984,362.461,602.984z"/>
		<path fill-rule="evenodd" clip-rule="evenodd" fill="#D7BB84" d="M387.326,583.784c19.594-16.458,64.263-3.49,52.363,5.816
			c-13.114,10.264-31.457,16.549-46.003,14.572C379.515,602.252,371.426,597.134,387.326,583.784z"/>
		<path fill-rule="evenodd" clip-rule="evenodd" fill="#B2522F" d="M248.757,589.508l4.237-61.013
			c19.464-7.243,34.393-8.582,41.445,10.124c3.886,10.316,7.233,58.494-20.719,60.523
			C269.129,599.478,255.057,597.543,248.757,589.508z"/>
		<path fill-rule="evenodd" clip-rule="evenodd" fill="#7C3D26" d="M252.424,507.401c28.371-9.012,97.403-4.146,120.515,17.101
			c33.632,30.926-35.392,120.46,30.736,131.136c35.267,5.693,59.031-82.875,15.708-98.804c-14.835-5.454-3.847-25.571-10.457-37.455
			c-9.553-17.177-0.502-56.247-57.395-65.428c-39.33-6.347-61.289-10.009-97.194,15.395c-20.086,14.213-5.068,64.086-29.392,74.895
			c-10.879,4.834-19.932,22.753,2.756,25.696c38.82,5.04,22.925,14.431,25.415-39.604
			C253.254,527.329,252.502,511.905,252.424,507.401z"/>
		<path fill-rule="evenodd" clip-rule="evenodd" fill="#CAA863" d="M265.798,525.891c14.075,2.268,23.011,19.403,19.966,38.273
			c-3.042,18.87-16.922,32.325-30.996,30.053c-14.072-2.274-23.013-19.409-19.966-38.278
			C237.846,537.069,251.72,523.617,265.798,525.891z"/>
		<path fill-rule="evenodd" clip-rule="evenodd" fill="#7BC39F" d="M264.764,532.267c11.447,1.849,18.721,15.783,16.242,31.131
			c-2.474,15.343-13.762,26.287-25.206,24.443c-11.447-1.849-18.718-15.788-16.239-31.132
			C242.034,541.364,253.32,530.417,264.764,532.267z"/>
		<path fill-rule="evenodd" clip-rule="evenodd" fill="#241D1E" d="M257.963,553.095c5.67,1.247,9.256,6.852,8.009,12.517
			c-1.248,5.675-6.853,9.251-12.517,8.009c-5.67-1.247-9.256-6.852-8.006-12.522C246.694,555.434,252.299,551.852,257.963,553.095z"
			/>
		<path fill-rule="evenodd" clip-rule="evenodd" fill="#7C3D26" d="M292.715,543.953c5.469,2.344,32.819-1.919,16.726,12.002
			c-4.089,3.532-2.592,24.162-7.139,23.427c-17.182-2.771-9.918-0.581-8.366-19.542
			C294.369,554.551,294.109,548.875,292.715,543.953z"/>
		<path fill-rule="evenodd" clip-rule="evenodd" fill="#B2522F" d="M315.786,599.858l4.238-61.015
			c19.466-7.238,34.392-8.574,41.445,10.124c3.891,10.319,7.233,58.5-20.716,60.528
			C336.163,609.826,322.094,607.899,315.786,599.858z"/>
		<path fill-rule="evenodd" clip-rule="evenodd" fill="#CAA863" d="M332.816,536.353c14.21,2.295,23.243,19.607,20.161,38.661
			c-3.071,19.054-17.085,32.642-31.301,30.348c-14.215-2.292-23.243-19.599-20.172-38.658
			C304.576,547.649,318.601,534.059,332.816,536.353z"/>
		<path fill-rule="evenodd" clip-rule="evenodd" fill="#7BC39F" d="M331.725,543.07c11.449,1.854,18.724,15.788,16.249,31.131
			c-2.485,15.348-13.765,26.292-25.214,24.443c-11.447-1.847-18.721-15.783-16.241-31.129
			C308.993,552.168,320.284,541.224,331.725,543.07z"/>
		<path fill-rule="evenodd" clip-rule="evenodd" fill="#241D1E" d="M323.19,565.922c6.087,1.339,9.928,7.353,8.584,13.429
			c-1.331,6.087-7.342,9.928-13.424,8.592c-6.082-1.339-9.928-7.355-8.584-13.437C311.103,568.433,317.114,564.586,323.19,565.922z"
			/>
		<path fill-rule="evenodd" clip-rule="evenodd" fill="#5E3222" d="M251.772,525.224c8.139-1.589,24.162-2.188,29.918-0.917
			c2.93,0.651-0.625-10.163-16.544-7.272C255.039,518.867,250.58,525.453,251.772,525.224z"/>
		<path fill-rule="evenodd" clip-rule="evenodd" fill="#7C3D26" d="M358.122,557.616c11.03-4.944,31.598-16.244,28.543,2.735
			c-2.344,14.528-9.949,36.247-27.209,28.092c-0.912-0.433,2.764-6.092,1.943-14.387
			C360.377,563.823,359.682,557.653,358.122,557.616z"/>
		<path fill-rule="evenodd" clip-rule="evenodd" fill="#B1542D" d="M405.146,553.285c-34.492,15.637-41.735,88.087-15.236,97.325
			c0.982,0.346-8.045-5.685-8.796-18.599c-0.63-10.819,1.959-26.357,3.896-32.129c12.174-36.244,22.151-35.817,31.923-42.164
			C418.942,556.416,407.131,552.389,405.146,553.285z"/>
		<path fill-rule="evenodd" clip-rule="evenodd" fill="#B1542D" d="M408.438,598.106c2.665,0.586,4.352,3.219,3.761,5.886
			c-0.586,2.665-3.214,4.352-5.884,3.761c-2.662-0.586-4.349-3.217-3.763-5.886C403.138,599.202,405.779,597.52,408.438,598.106z"/>
		<path fill-rule="evenodd" clip-rule="evenodd" fill="#B1542D" d="M424.583,587.857c2.665,0.586,4.347,3.219,3.761,5.886
			c-0.586,2.669-3.222,4.352-5.886,3.766c-2.665-0.586-4.347-3.222-3.766-5.886C419.283,588.959,421.916,587.271,424.583,587.857z"
			/>
		<path fill-rule="evenodd" clip-rule="evenodd" fill="#B1542D" d="M430.407,606.792c2.659,0.591,4.344,3.219,3.764,5.884
			c-0.583,2.667-3.227,4.355-5.891,3.769c-2.659-0.586-4.344-3.222-3.756-5.891C425.104,607.893,427.742,606.206,430.407,606.792z"
			/>
		<path fill-rule="evenodd" clip-rule="evenodd" fill="#B1542D" d="M414.655,618.968c2.664,0.591,4.347,3.224,3.766,5.891
			c-0.591,2.664-3.227,4.347-5.891,3.766c-2.664-0.586-4.347-3.227-3.766-5.891C409.355,620.07,411.991,618.387,414.655,618.968z"/>
		<path fill-rule="evenodd" clip-rule="evenodd" fill="#B2522F" d="M372.288,524.497c-34.53-20.141-76.286-21.583-119.064-16.651
			c-8.735-3.875-8.454-20.851-1.643-26.472c22.573-18.622,120.528,4.605,124.484,16.129c3.597,10.504-1.899,7.738-2.925,20.135
			C372.879,520.737,378.885,525.56,372.288,524.497z"/>
		<path fill-rule="evenodd" clip-rule="evenodd" fill="#E8D1A8" d="M226.457,598.411l-14.958-39.104
			c0.029,0,18.828,5.605,24.875,6.581c12.465,2.013,26.787,6.24,39.299,7.977c3.237,0.451,24.349,4.128,23.682,7.368
			c-3.341,16.179-21.748,27.915-38.463,25.571C255.268,606.018,229.994,601.367,226.457,598.411z"/>
		<path fill-rule="evenodd" clip-rule="evenodd" fill="#503229" d="M394.126,541.479c-3.875-13.145-8.493-21.55-12.371-34.692
			c9.397,0.26,19.375-0.607,28.772-0.357c-17.513-21.604-29.444-68.628-1.091-75.785c24.513-5.066,23.972,38.929,33.309,66.269
			c5.772,9.668,21.979-0.878,31.296-3.597c-16.869-18.815-42.024-90.688-2.704-99.093c13.153-3.675,23.922,7.173,27.068,24.019
			c4.477,23.959-1.052,57.169,9.376,53.257c25.315-9.168,7.009-52.801,20.747-77.747c5.907-10.725,15.828-13.309,26.373-11.535
			c36.901,2.805,47.904,101.408-33.903,149.578C496.527,545.224,445.859,560.622,394.126,541.479z"/>
	</g>
</g>
</svg>
